<svg id="svg3379" xmlns:rdf="http://www.w3.org/1999/02/22-rdf-syntax-ns#" xmlns="http://www.w3.org/2000/svg" enable-background="new 0 0 550 385" xml:space="preserve" version="1.1" y="0px" x="0px" xmlns:cc="http://creativecommons.org/ns#" xmlns:dc="http://purl.org/dc/elements/1.1/" viewBox="0 0 512 512"><g id="g3381" transform="matrix(5.1065 0 0 5.3417 -438.95 -403.22)"><path id="path3383" fill="#ff9c00" d="m158.38 145.38 27.881-41.97c-14.319-9.531-31.51-15.089-50-15.089-18.491 0-35.681 5.558-50 15.089l27.892 41.97c4.071-2.708 8.668-4.687 13.603-5.758l4.848 10.73c-1.521 2.007-1.28 4.877 0.625 6.594 2.009 1.811 5.107 1.649 6.918-0.361 1.811-2.011 1.649-5.107-0.361-6.918-0.839-0.756-1.868-1.164-2.914-1.241l-4.31-9.543c1.221-0.112 2.455-0.176 3.705-0.176 8.177 0 15.78 2.458 22.113 6.673zm-42.59-7-22.179-33.37c4.897-2.843 10.041-5.174 15.361-6.974l16.589 36.724c-3.382 0.823-6.66 2.035-9.773 3.621zm-2.303-41.732c7.36-2.04 15.01-3.089 22.78-3.089 15.087 0 29.727 3.946 42.655 11.45l-22.167 33.37c-6.317-3.218-13.305-4.903-20.482-4.903-2.009 0-4.001 0.137-5.97 0.397l-16.82-37.222z"/></g></svg>
