<svg id="svg3498" xmlns:rdf="http://www.w3.org/1999/02/22-rdf-syntax-ns#" xmlns="http://www.w3.org/2000/svg" enable-background="new 0 0 612 792" xml:space="preserve" viewBox="0 0 612 792" version="1.1" y="0px" x="0px" xmlns:cc="http://creativecommons.org/ns#" xmlns:dc="http://purl.org/dc/elements/1.1/"><g id="g3500" transform="matrix(7.0921 0 0 6.8193 -1690.7 -1535)"><g id="g3502"><path id="path3504" d="m317.5 266.54c0.924-0.247 2.53-0.675 3.294-0.889 0.906-0.253 1.055-0.655 0.782-1.516-3.922-12.303-10.613-21.646-22.571-25.557-0.908-0.298-1.459-0.094-1.805 0.935-0.247 0.732-0.341 1.494-0.308 2.492 0.035 1.04 0.274 1.456 0.722 1.865 8.974 8.248 12.614 13.939 13.695 27.257 0.696 8.561 3.782 24.346 6.128 31.254 1.62 4.77-2.138 10.067-7.345 10.067-4.263 0-7.73-3.466-7.73-7.73v-22.25c0-6.139-5.034-10.527-10.347-10.519h-1.259v-28.11c0-2.858-2.318-5.173-5.173-5.173h-35.286c-2.858 0-5.173 2.316-5.173 5.173v76.435c0 0.818-0.662 1.46-1.479 1.46h-1.605c-0.816 0-1.477 0.642-1.477 1.459v3.432c0 0.816 0.661 1.477 1.477 1.477h51.797c0.818 0 1.48-0.662 1.48-1.477v-3.432c0-0.818-0.663-1.459-1.48-1.459h-1.604c-0.818 0-1.477-0.642-1.477-1.46v-42.465h0.869c3.453 0 4.823 2.762 4.823 4.658v22.25c0 7.534 6.109 13.645 13.643 13.645 8.696 0 15.889-8.413 12.989-17.736-2.807-9.027-5.881-24.289-6.259-33.232 0.01-0.3 0.23-0.72 0.7-0.85zm-32.66 2.85c0 0.816-0.663 1.479-1.478 1.479h-30.418c-0.818 0-1.477-0.663-1.477-1.479v-23.116c0-0.816 0.661-1.479 1.477-1.479h30.418c0.815 0 1.478 0.663 1.478 1.479v23.12z" fill="#FF9C00"/></g></g><path id="path3395" d="m149.1 671.14c-1.388 0-2.789-0.353-4.062-1.092-3.467-2.004-4.953-6.238-3.499-9.968l51.072-131.33h-70.63c-2.565 0-4.979-1.209-6.51-3.267-1.533-2.054-2.001-4.715-1.269-7.172l45.203-151.42c1.026-3.438 4.188-5.796 7.775-5.796h84.753c2.67 0 5.171 1.314 6.684 3.514 1.515 2.199 1.852 5.004 0.898 7.499l-32.509 85.042h81.429c3.13 0 5.975 1.795 7.322 4.614 1.351 2.821 0.963 6.165-0.999 8.596l-159.31 197.77c-1.59 1.973-3.933 3.024-6.323 3.024h-0.02zm-16.22-158.61h71.599c2.679 0 5.187 1.323 6.697 3.536 1.513 2.212 1.838 5.028 0.869 7.524l-36.381 93.54 115.81-143.74h-76.263c-2.67 0-5.171-1.316-6.685-3.515s-1.85-5.004-0.896-7.499l32.513-85.038h-66.914l-40.354 135.18v0.01z" fill="#fff"/></svg>
