<svg id="Capa_1" xmlns:rdf="http://www.w3.org/1999/02/22-rdf-syntax-ns#" style="enable-background:new 0 0 211.398 211.398" xmlns="http://www.w3.org/2000/svg" xml:space="preserve" viewBox="0 0 211.398 211.398" height="512px" width="512px" version="1.1" y="0px" x="0px" xmlns:cc="http://creativecommons.org/ns#" xmlns:dc="http://purl.org/dc/elements/1.1/"><metadata id="metadata3393"><rdf:RDF><cc:Work rdf:about=""><dc:format>image/svg+xml</dc:format><dc:type rdf:resource="http://purl.org/dc/dcmitype/StillImage"/><dc:title/></cc:Work></rdf:RDF></metadata><g id="g3419" fill="#ff9c00"><path id="path3421" d="m182.32 56.618c-16.482-12.067-37.006-19.272-54.901-19.272-18.011 0-31.322 7.262-39.563 21.583-6.457 11.221-9.597 26.52-9.597 46.771 0 20.25 3.139 35.549 9.597 46.771 8.242 14.321 21.553 21.583 39.563 21.583 17.895 0 38.419-7.205 54.901-19.272 18.748-13.727 29.073-31.158 29.073-49.081 0.01-17.925-10.32-35.355-29.07-49.082zm-8.86 86.062c-13.795 10.101-31.437 16.375-46.04 16.375-15.904 0-34.16-6.064-34.16-53.353s18.256-53.354 34.16-53.354c14.604 0 32.245 6.274 46.04 16.375 14.575 10.671 22.935 24.149 22.935 36.979 0 12.82-8.36 26.3-22.94 36.97z"/><path id="path3423" d="m64.055 44.945l-56.555-0.001c-4.142 0-7.5 3.358-7.5 7.5s3.358 7.5 7.5 7.5l56.555 0.001c4.142 0 7.5-3.358 7.5-7.5s-3.358-7.5-7.5-7.5z"/><path id="path3425" d="m64.055 72.299h-56.555c-4.142 0-7.5 3.358-7.5 7.5s3.358 7.5 7.5 7.5h56.555c4.142 0 7.5-3.358 7.5-7.5s-3.358-7.5-7.5-7.5z"/><path id="path3427" d="m64.055 99.653h-56.555c-4.142 0-7.5 3.358-7.5 7.5s3.358 7.5 7.5 7.5h56.555c4.142 0 7.5-3.358 7.5-7.5 0-4.14-3.358-7.497-7.5-7.497z"/><path id="path3429" d="m64.055 127.01h-56.555c-4.142 0-7.5 3.358-7.5 7.5s3.358 7.5 7.5 7.5h56.555c4.142 0 7.5-3.358 7.5-7.5s-3.358-7.5-7.5-7.5z"/><path id="path3431" d="m64.055 154.36h-56.555c-4.142 0-7.5 3.358-7.5 7.5s3.358 7.5 7.5 7.5h56.555c4.142 0 7.5-3.358 7.5-7.5 0-4.14-3.358-7.5-7.5-7.5z"/></g></svg>
