<svg id="svg3461" xmlns:rdf="http://www.w3.org/1999/02/22-rdf-syntax-ns#" xmlns="http://www.w3.org/2000/svg" enable-background="new 0 0 550 385" xml:space="preserve" version="1.1" y="0px" x="0px" xmlns:cc="http://creativecommons.org/ns#" xmlns:dc="http://purl.org/dc/elements/1.1/" viewBox="0 0 512 512"><g id="g3463" fill="#ff9c00" transform="matrix(4.6471 0 0 5.5251 -1022.1 -431.89)"><path id="path3465" d="m326.02 138.9c2.219 0 4.152-2.174 3.967-4.508-0.199-2.514-1.328-3.251-1.861-5.335-0.352-1.376-0.705-3.305-0.947-5.646-0.053-0.505-0.598-0.937-1.158-0.937-0.562 0-1.105 0.432-1.158 0.937-0.242 2.342-0.596 4.271-0.949 5.646-0.531 2.084-1.66 2.821-1.859 5.335-0.187 2.335 1.745 4.508 3.965 4.508z"/><path id="path3467" d="m325.88 116.79 3.547-4.314s-2.656-2.929-3.494-3.856c-0.875-0.971-1.967-1.034-4.256-0.328-1.473 0.455-38.607 11.228-38.607 11.228l-4.975-4.598h-12.385v-5.793h6.424v-5.568h-18.415v5.568h6.424v5.791h-12.44v-4.317l-22.936-8.708-4.762 17.173 21.943 8.39v17.178h49.7l22.717-27.286c1.213-1.506 2.945-2.29 5.621-2.838 1.146-0.234 2.803-0.166 3.584 0.4 0.726 0.528 2.31 1.878 2.31 1.878zm-83.932 4.339-14.85-5.648 1.624-5.852 13.227 5.065v6.435zm63.168-0.696-15.916 18.311h-41.498v-17.79h28.232l5.748 5.236 22.752-7.258c1.159-0.372 1.727 0.351 0.682 1.501z"/></g></svg>
