<svg id="svg3432" xmlns:rdf="http://www.w3.org/1999/02/22-rdf-syntax-ns#" xmlns="http://www.w3.org/2000/svg" enable-background="new 0 0 550 385" xml:space="preserve" version="1.1" y="0px" x="0px" xmlns:cc="http://creativecommons.org/ns#" xmlns:dc="http://purl.org/dc/elements/1.1/" viewBox="0 0 512 512"><g id="g3434" fill="#ff9c00" transform="matrix(6.2238 0 0 5.8259 -592.25 -1288.9)"><path id="path3436" d="m136.27 287.54c4.243 0 7.687-3.439 7.687-7.691 0-2.537-1.242-4.788-3.148-6.19v-6.753h17.325v-5.244h-17.325v-7.53h17.325v-5.243h-17.325v-7.539h17.325v-5.234h-17.325v-6.343c0-2.501-2.032-4.538-4.538-4.538-2.51 0-4.542 2.037-4.542 4.538v43.887c-1.902 1.402-3.148 3.653-3.148 6.19-0.002 4.25 3.441 7.69 7.689 7.69z"/><path id="path3438" d="m175.37 276.2c-3.966-2.055-9.647-2.376-14.154 0-3.305 1.741-6.816 2.117-10.398 1.25v5.959c3.582 0.866 7.093 0.491 10.398-1.251 4.506-2.376 10.188-2.055 14.154 0 0.639 0.33 1.331 0.625 2.059 0.875v-5.958c-0.728-0.259-1.42-0.545-2.059-0.875z"/><path id="path3440" d="m111.32 282.16c3.305 1.742 6.816 2.117 10.398 1.251v-5.959c-3.582 0.867-7.093 0.491-10.398-1.25-4.506-2.376-10.188-2.055-14.154 0-0.639 0.33-1.331 0.616-2.063 0.875v5.958c0.732-0.25 1.425-0.545 2.063-0.875 3.966-2.054 9.648-2.376 14.154 0z"/><path id="path3442" d="m162.84 292.72c-3.493 2.447-7.263 2.331-10.635 0-3.376-2.341-7.146-2.456-10.634 0-3.493 2.447-7.262 2.331-10.635 0-3.376-2.341-7.146-2.456-10.634 0-3.488 2.447-7.258 2.331-10.634 0-2.966-2.055-6.235-2.385-9.353-0.769v5.718c3.117-1.608 6.387-1.287 9.353 0.768 3.376 2.332 7.146 2.457 10.634 0 3.488-2.456 7.258-2.331 10.634 0 3.373 2.332 7.142 2.457 10.635 0 3.488-2.456 7.258-2.331 10.634 0 3.372 2.332 7.142 2.457 10.635 0 3.063-2.152 6.337-2.322 9.375-0.759v-5.718c-3.037-1.563-6.311-1.393-9.375 0.76z"/></g></svg>
