<svg xmlns="http://www.w3.org/2000/svg" viewBox="0 0 512 512" version="1"><g fill-rule="evenodd"><path d="M488.679 457.162l-467.714.347c-18.281.015-25.973-18.788-15.212-37.185l224.705-384.151c12.833-21.318 36.625-21.55 49.457.719l227.286 383.088c12.501 18.284 3.407 37.501-18.519 37.177z"/><path fill="#ffe600" d="M371.518 287.894l65.941 115.871-226.762 1.966-132.936-1.333 110.626-197.526 66.995-114.545 116.136 195.567z"/><path d="M241.945 163.163l-56.626 141.477 79.275-27.58-27.878 105.889 59.237-129.913-84.497 26.691 60.977-117.453-30.489.889zM230.616 343.791l6.969 43.603 30.489-36.484-21.779 5.341-15.679-12.46z"/></g></svg>