<svg xmlns="http://www.w3.org/2000/svg" height="512" width="512" viewBox="0 0 938 938" enable-background="new 0 0 938 938"><g fill="#91DC5A"><path d="M50.792 747.96c0 13.415 10.875 24.29 24.29 24.29h787.84c13.415 0 24.29-10.875 24.29-24.29v-408.36h-836.42v408.36zm599-271.09c0-6.419 5.203-11.622 11.622-11.622h112.1c6.419 0 11.622 5.203 11.622 11.622v27.54c0 6.419-5.203 11.622-11.622 11.622h-112.1c-6.419 0-11.622-5.203-11.622-11.622v-27.54zm-496.92-.57c0-6.091 4.938-11.029 11.029-11.029h36.764v-36.8c0-6.091 4.938-11.028 11.029-11.028h28.725c6.091 0 11.029 4.938 11.029 11.028v36.8h36.764c6.091 0 11.029 4.938 11.029 11.029v28.727c0 6.091-4.938 11.028-11.029 11.028h-36.764v36.765c0 6.091-4.938 11.028-11.029 11.028h-28.725c-6.091 0-11.029-4.938-11.029-11.028v-36.77h-36.764c-6.091 0-11.029-4.938-11.029-11.028v-28.72h-.01z"/><path d="M915.28 314.6c12.545 0 22.715-10.17 22.715-22.715v-38.164c0-12.545-10.17-22.715-22.715-22.715h-126.74v-42.552c0-12.545-10.17-22.715-22.715-22.715h-97.83c-12.545 0-22.715 10.17-22.715 22.715v42.552h-343.67v-42.552c0-12.545-10.17-22.715-22.715-22.715h-97.83c-12.545 0-22.715 10.17-22.715 22.715v42.552h-135.64c-12.55 0-22.72 10.17-22.72 22.72v38.165c0 12.545 10.17 22.715 22.715 22.715h864.5l28.07-.02z"/></g></svg>