<svg xmlns="http://www.w3.org/2000/svg" viewBox="0 0 474.026 474.026" enable-background="new 0 0 474.026 474.026"><path d="M356.495 74.937h-229.6c-24.093 0-43.732 19.622-43.732 43.732v229.608c0 24.134 19.639 43.74 43.732 43.74h229.6c24.109 0 43.74-19.606 43.74-43.74v-229.616c0-24.101-19.631-43.724-43.74-43.724zM424.661 143.518h42.285c3.902 0 7.08-3.162 7.08-7.064s-3.178-7.08-7.08-7.08h-42.285c-3.894 0-7.064 3.178-7.064 7.08 0 3.894 3.171 7.064 7.064 7.064zM466.946 167.888h-42.285c-3.894 0-7.064 3.162-7.064 7.08 0 3.894 3.178 7.064 7.064 7.064h42.285c3.902 0 7.08-3.178 7.08-7.064 0-3.918-3.17-7.08-7.08-7.08zM466.946 207.132h-42.285c-3.894 0-7.064 3.178-7.064 7.064 0 3.902 3.178 7.096 7.064 7.096h42.285c3.902 0 7.08-3.186 7.08-7.096 0-3.885-3.17-7.064-7.08-7.064zM466.946 245.646h-42.285c-3.894 0-7.064 3.178-7.064 7.088 0 3.894 3.178 7.064 7.064 7.064h42.285c3.902 0 7.08-3.178 7.08-7.064 0-3.918-3.17-7.088-7.08-7.088zM466.946 281.184h-42.285c-3.894 0-7.064 3.178-7.064 7.064s3.178 7.064 7.064 7.064h42.285c3.902 0 7.08-3.178 7.08-7.064s-3.17-7.064-7.08-7.064zM466.946 319.689h-42.285c-3.894 0-7.064 3.178-7.064 7.088 0 3.894 3.178 7.039 7.064 7.039h42.285c3.902 0 7.08-3.146 7.08-7.039 0-3.91-3.17-7.088-7.08-7.088zM49.357 129.366h-42.293c-3.894 0-7.064 3.178-7.064 7.08s3.178 7.064 7.064 7.064h42.293c3.894 0 7.072-3.162 7.072-7.064-.009-3.901-3.187-7.08-7.072-7.08zM49.357 167.888h-42.293c-3.894 0-7.064 3.162-7.064 7.08 0 3.894 3.178 7.064 7.064 7.064h42.293c3.894 0 7.072-3.178 7.072-7.064-.009-3.918-3.187-7.08-7.072-7.08zM49.357 207.132h-42.293c-3.894 0-7.064 3.178-7.064 7.064 0 3.902 3.178 7.096 7.064 7.096h42.293c3.894 0 7.072-3.186 7.072-7.096-.009-3.885-3.187-7.064-7.072-7.064zM49.357 245.646h-42.293c-3.894 0-7.064 3.178-7.064 7.088 0 3.894 3.178 7.064 7.064 7.064h42.293c3.894 0 7.072-3.178 7.072-7.064-.009-3.918-3.187-7.088-7.072-7.088zM49.357 281.184h-42.293c-3.894 0-7.064 3.178-7.064 7.064s3.178 7.064 7.064 7.064h42.293c3.894 0 7.072-3.178 7.072-7.064s-3.187-7.064-7.072-7.064zM49.357 319.689h-42.293c-3.894 0-7.064 3.178-7.064 7.088 0 3.894 3.178 7.039 7.064 7.039h42.293c3.894 0 7.072-3.146 7.072-7.039-.009-3.91-3.187-7.088-7.072-7.088zM336.864 417.606c-3.894 0-7.072 3.178-7.072 7.064v42.293c0 3.894 3.186 7.064 7.072 7.064 3.894 0 7.072-3.178 7.072-7.064v-42.293c0-3.894-3.17-7.064-7.072-7.064zM298.343 417.606c-3.877 0-7.047 3.178-7.047 7.064v42.293c0 3.894 3.178 7.064 7.047 7.064 3.902 0 7.08-3.178 7.08-7.064v-42.293c0-3.894-3.178-7.064-7.08-7.064zM259.123 417.606c-3.91 0-7.072 3.178-7.072 7.064v42.293c0 3.894 3.162 7.064 7.072 7.064 3.885 0 7.056-3.178 7.056-7.064v-42.293c-.001-3.894-3.179-7.064-7.056-7.064zM220.601 417.606c-3.902 0-7.08 3.178-7.08 7.064v42.293c0 3.894 3.178 7.064 7.08 7.064 3.894 0 7.056-3.178 7.056-7.064v-42.293c0-3.894-3.162-7.064-7.056-7.064zM185.063 417.606c-3.902 0-7.08 3.178-7.08 7.064v42.293c0 3.894 3.178 7.064 7.08 7.064 3.894 0 7.056-3.178 7.056-7.064v-42.293c0-3.894-3.17-7.064-7.056-7.064zM146.558 417.606c-3.918 0-7.08 3.178-7.08 7.064v42.293c0 3.894 3.162 7.064 7.08 7.064 3.894 0 7.056-3.178 7.056-7.064v-42.293c0-3.894-3.162-7.064-7.056-7.064zM336.864 56.404c3.894 0 7.072-3.162 7.072-7.039v-42.301c0-3.902-3.178-7.064-7.072-7.064s-7.072 3.162-7.072 7.064v42.309c.001 3.869 3.187 7.031 7.072 7.031zM298.343 56.404c3.902 0 7.08-3.162 7.08-7.039v-42.301c0-3.902-3.178-7.064-7.08-7.064-3.877 0-7.047 3.162-7.047 7.064v42.309c0 3.869 3.17 7.031 7.047 7.031zM259.123 56.404c3.885 0 7.056-3.162 7.056-7.039v-42.301c-.001-3.902-3.179-7.064-7.056-7.064-3.91 0-7.072 3.162-7.072 7.064v42.309c0 3.869 3.154 7.031 7.072 7.031zM220.601 56.404c3.894 0 7.056-3.162 7.056-7.039v-42.301c0-3.902-3.162-7.064-7.056-7.064-3.902 0-7.08 3.162-7.08 7.064v42.309c0 3.869 3.179 7.031 7.08 7.031zM185.063 56.404c3.894 0 7.056-3.162 7.056-7.039v-42.301c0-3.902-3.162-7.064-7.056-7.064-3.902 0-7.08 3.162-7.08 7.064v42.309c0 3.869 3.179 7.031 7.08 7.031zM146.558 56.404c3.894 0 7.056-3.162 7.056-7.039v-42.301c0-3.902-3.162-7.064-7.056-7.064-3.918 0-7.08 3.162-7.08 7.064v42.309c0 3.869 3.162 7.031 7.08 7.031z" fill="#010002"/></svg>