<?xml version="1.0" encoding="UTF-8" standalone="no"?>
<svg
   xmlns:dc="http://purl.org/dc/elements/1.1/"
   xmlns:cc="http://creativecommons.org/ns#"
   xmlns:rdf="http://www.w3.org/1999/02/22-rdf-syntax-ns#"
   xmlns:svg="http://www.w3.org/2000/svg"
   xmlns="http://www.w3.org/2000/svg"
   xml:space="preserve"
   style="enable-background:new 0 0 89.938 89.938;"
   viewBox="0 0 89.938 89.938"
   height="512px"
   width="512px"
   y="0px"
   x="0px"
   id="Capa_1"
   version="1.1"><metadata
     id="metadata47"><rdf:RDF><cc:Work
         rdf:about=""><dc:format>image/svg+xml</dc:format><dc:type
           rdf:resource="http://purl.org/dc/dcmitype/StillImage" /><dc:title></dc:title></cc:Work></rdf:RDF></metadata><defs
     id="defs45" /><g
     id="g3"><g
       id="g5"><path
         id="path7"
         fill="#91DC5A"
         d="M88.461,37.406h-1.969c-0.814,0-1.479,0.663-1.479,1.477v25.655c0,0.814,0.662,1.479,1.479,1.479h1.969    c0.813,0,1.477-0.664,1.477-1.479V38.882C89.938,38.069,89.275,37.406,88.461,37.406z" /><path
         id="path9"
         fill="#91DC5A"
         d="M1.477,36.157C0.664,36.157,0,36.819,0,37.634v28.164c0,0.813,0.663,1.478,1.477,1.478h4.015    c0.814,0,1.477-0.663,1.477-1.478V37.642c0-0.813-0.662-1.477-1.477-1.477H1.477V36.157z" /><path
         id="path11"
         fill="#91DC5A"
         d="M57.617,71.781c3.294-1.278,6.568-2.595,9.855-3.872c0.293-0.113,0.634-0.152,0.947-0.16    c2.432-0.01,4.864-0.01,7.288-0.01c2.519,0,4.138-1.62,4.138-4.166v-8.331c0-0.597,0.481-1.069,1.069-1.069l1.05-0.027    c0.834,0,0.883-0.323,0.909-0.9l0.021-4.837c0-0.481-0.389-0.871-0.872-0.871h-1.126c-0.598,0-1.079-0.483-1.079-1.08    l0.036-10.101c0.029-1.496-0.576-2.527-1.723-3.352c-1.969-1.42-7.771-5.538-8.719-6.144c-0.652-0.427-1.363-0.597-2.158-0.587    l-10.007-0.01c-0.853,0-1.543-0.691-1.543-1.543v-0.312c0-0.861,0.7-1.562,1.562-1.562h9.07c0.86,0,1.562-0.7,1.562-1.562v-1.809    c0-0.861-0.701-1.562-1.562-1.562H36.222c-0.862,0-1.562,0.7-1.562,1.562v1.809c0,0.861,0.7,1.562,1.562,1.562h9.816    c0.862,0,1.563,0.701,1.563,1.562v0.36c0,0.852-0.691,1.552-1.555,1.542l-9.911-0.037c-1.895-0.057-3.446,0.587-4.886,1.628    c-2.102,1.524-4.165,3.096-6.229,4.668c-0.521,0.397-1.174,0.615-1.827,0.605c-1.987-0.02-3.976-0.02-5.964,0    c-2.471,0.019-4.07,1.609-4.09,4.09l0.028,6.901c0,0.586-0.474,1.069-1.07,1.069h-0.927c-1.127,0-2.036,0.909-2.036,2.036v10.935    c0,1.126,0.909,2.034,2.036,2.034h0.899c0.587,0,1.069,0.475,1.069,1.07c0,1.57-0.01,4.496,0,6.189    c0,1.573-0.028,4.526,2.85,4.526h40.37C56.784,72.027,57.229,71.942,57.617,71.781z" /></g></g><g
     id="g13" /><g
     id="g15" /><g
     id="g17" /><g
     id="g19" /><g
     id="g21" /><g
     id="g23" /><g
     id="g25" /><g
     id="g27" /><g
     id="g29" /><g
     id="g31" /><g
     id="g33" /><g
     id="g35" /><g
     id="g37" /><g
     id="g39" /><g
     id="g41" /></svg>