<svg id="Capa_1" xmlns:rdf="http://www.w3.org/1999/02/22-rdf-syntax-ns#" style="enable-background:new 0 0 89.938 89.938" xmlns="http://www.w3.org/2000/svg" xml:space="preserve" height="512px" width="512px" version="1.1" y="0px" x="0px" xmlns:cc="http://creativecommons.org/ns#" xmlns:dc="http://purl.org/dc/elements/1.1/" viewBox="0 0 89.938 89.938"><g id="g3"><g id="g5" fill="#91DC5A"><path id="path7" d="m88.461 37.406h-1.969c-0.814 0-1.479 0.663-1.479 1.477v25.655c0 0.814 0.662 1.479 1.479 1.479h1.969c0.813 0 1.477-0.664 1.477-1.479v-25.656c0-0.813-0.663-1.476-1.477-1.476z"/><path id="path9" d="m1.477 36.157c-0.813 0-1.477 0.662-1.477 1.477v28.164c0 0.813 0.663 1.478 1.477 1.478h4.015c0.814 0 1.477-0.663 1.477-1.478v-28.156c0-0.813-0.662-1.477-1.477-1.477h-4.015v-0.008z"/><path id="path11" d="m57.617 71.781c3.294-1.278 6.568-2.595 9.855-3.872 0.293-0.113 0.634-0.152 0.947-0.16 2.432-0.01 4.864-0.01 7.288-0.01 2.519 0 4.138-1.62 4.138-4.166v-8.331c0-0.597 0.481-1.069 1.069-1.069l1.05-0.027c0.834 0 0.883-0.323 0.909-0.9l0.021-4.837c0-0.481-0.389-0.871-0.872-0.871h-1.126c-0.598 0-1.079-0.483-1.079-1.08l0.036-10.101c0.029-1.496-0.576-2.527-1.723-3.352-1.969-1.42-7.771-5.538-8.719-6.144-0.652-0.427-1.363-0.597-2.158-0.587l-10.007-0.01c-0.853 0-1.543-0.691-1.543-1.543v-0.312c0-0.861 0.7-1.562 1.562-1.562h9.07c0.86 0 1.562-0.7 1.562-1.562v-1.809c0-0.861-0.701-1.562-1.562-1.562h-30.113c-0.862 0-1.562 0.7-1.562 1.562v1.809c0 0.861 0.7 1.562 1.562 1.562h9.816c0.862 0 1.563 0.701 1.563 1.562v0.36c0 0.852-0.691 1.552-1.555 1.542l-9.911-0.037c-1.895-0.057-3.446 0.587-4.886 1.628-2.102 1.524-4.165 3.096-6.229 4.668-0.521 0.397-1.174 0.615-1.827 0.605-1.987-0.02-3.976-0.02-5.964 0-2.471 0.019-4.07 1.609-4.09 4.09l0.028 6.901c0 0.586-0.474 1.069-1.07 1.069h-0.927c-1.127 0-2.036 0.909-2.036 2.036v10.935c0 1.126 0.909 2.034 2.036 2.034h0.899c0.587 0 1.069 0.475 1.069 1.07 0 1.57-0.01 4.496 0 6.189 0 1.573-0.028 4.526 2.85 4.526h40.37c0.426 0.002 0.871-0.083 1.259-0.244z"/></g></g></svg>
