<svg id="svg2" xmlns:rdf="http://www.w3.org/1999/02/22-rdf-syntax-ns#" style="" xmlns="http://www.w3.org/2000/svg" enable-background="new 0 0 48 48" xml:space="preserve" version="1.0" y="0px" x="0px" xmlns:cc="http://creativecommons.org/ns#" xmlns:dc="http://purl.org/dc/elements/1.1/" viewBox="0 0 48 48"><circle id="circle4" cy="22" cx="24" r="20" fill="#FFF59D"/><path id="path6" d="m37 22c0-7.7-6.6-13.8-14.5-12.9-6 0.7-10.8 5.5-11.4 11.5-0.5 4.6 1.4 8.7 4.6 11.3 1.4 1.2 2.3 2.9 2.3 4.8v0.3h12v-0.1c0-1.8 0.8-3.6 2.2-4.8 2.9-2.4 4.8-6 4.8-10.1z" fill="#FBC02D"/><path id="path8" d="m30.6 20.2l-3-2c-0.3-0.2-0.8-0.2-1.1 0l-2.5 1.6-2.4-1.6c-0.3-0.2-0.8-0.2-1.1 0l-3 2c-0.2 0.2-0.4 0.4-0.4 0.7s0 0.6 0.2 0.8l3.8 4.7v10.6h2v-11c0-0.2-0.1-0.4-0.2-0.6l-3.3-4.1 1.5-1 2.4 1.6c0.3 0.2 0.8 0.2 1.1 0l2.4-1.6 1.5 1-3.3 4.1c-0.1 0.2-0.2 0.4-0.2 0.6v11h2v-10.6l3.8-4.7c0.2-0.2 0.3-0.5 0.2-0.8s-0.2-0.6-0.4-0.7z" fill="#FFF59D"/><circle id="circle10" cy="44" cx="24" r="3" fill="#5C6BC0"/><path id="path12" d="m26 45h-4c-2.2 0-4-1.8-4-4v-5h12v5c0 2.2-1.8 4-4 4z" fill="#9FA8DA"/><g id="g14" fill="#5C6BC0"><path id="path16" d="m30 41l-11.6 1.6c0.3 0.7 0.9 1.4 1.6 1.8l9.4-1.3c0.4-0.6 0.6-1.3 0.6-2.1z"/><polygon id="polygon18" points="18 38.7 18 40.7 30 39 30 37"/></g></svg>
