<svg xmlns="http://www.w3.org/2000/svg" enable-background="new 0 0 48 48" version="1" viewBox="0 0 48 48"><circle cy="22" cx="24" r="20" fill="#FFF59D"/><path d="M37 22c0-7.7-6.6-13.8-14.5-12.9-6 .7-10.8 5.5-11.4 11.5-.5 4.6 1.4 8.7 4.6 11.3 1.4 1.2 2.3 2.9 2.3 4.8v.3h12v-.1c0-1.8.8-3.6 2.2-4.8 2.9-2.4 4.8-6 4.8-10.1z" fill="#FBC02D"/><path d="M30.6 20.2l-3-2c-.3-.2-.8-.2-1.1 0l-2.5 1.6-2.4-1.6c-.3-.2-.8-.2-1.1 0l-3 2c-.2.2-.4.4-.4.7s0 .6.2.8l3.8 4.7v10.6h2v-11c0-.2-.1-.4-.2-.6l-3.3-4.1 1.5-1 2.4 1.6c.3.2.8.2 1.1 0l2.4-1.6 1.5 1-3.3 4.1c-.1.2-.2.4-.2.6v11h2v-10.6l3.8-4.7c.2-.2.3-.5.2-.8s-.2-.6-.4-.7z" fill="#FFF59D"/><circle cy="44" cx="24" r="3" fill="#5C6BC0"/><path d="M26 45h-4c-2.2 0-4-1.8-4-4v-5h12v5c0 2.2-1.8 4-4 4z" fill="#9FA8DA"/><g fill="#5C6BC0"><path d="M30 41l-11.6 1.6c.3.7.9 1.4 1.6 1.8l9.4-1.3c.4-.6.6-1.3.6-2.1z"/><path d="M18 38.7v2l12-1.7v-2z"/></g></svg>