<svg id="Capa_1" xmlns:rdf="http://www.w3.org/1999/02/22-rdf-syntax-ns#" style="enable-background:new 0 0 927.198 927.197" xmlns="http://www.w3.org/2000/svg" xml:space="preserve" height="512px" width="512px" version="1.1" y="0px" x="0px" xmlns:cc="http://creativecommons.org/ns#" xmlns:dc="http://purl.org/dc/elements/1.1/" viewBox="0 0 927.198 927.197"><g id="g3"><g id="g5" fill="#91DC5A"><path id="path7" d="m833.52 209.92l35.354 35.355 15.219-15.218c26.319-26.32 26.319-69.146 0-95.468l-91.49-91.49c-12.75-12.749-29.702-19.771-47.732-19.771-18.031 0-34.982 7.021-47.732 19.771l-15.219 15.219 35.355 35.355 15.219-15.219c3.307-3.306 7.702-5.127 12.378-5.127 4.677 0 9.072 1.821 12.378 5.127l91.489 91.489c6.825 6.825 6.825 17.932 0 24.757l-15.23 15.22z"/><path id="path9" d="m56.352 738.25c-36.614 36.62-78.899 138.27-42.284 174.88 28.087 28.087 94.438 9.746 140.35-16.849 3.323-1.926 6.224-6.597 6.425-10.432 1.565-29.888 5.461-74.824 5.461-74.824 0.013-1.5 0.896-2.383 2.396-2.396l80.602-1.767c2.064-0.045 3.727-1.709 3.77-3.773l1.687-80.521c0.013-1.5 0.896-2.383 2.397-2.396 0 0 52.667-0.465 74.189-0.659 4.97-0.045 11.85-2.931 15.364-6.444 16.873-16.869 64.503-64.495 108.98-108.97l-132.6-132.59-266.74 266.74z"/><path id="path11" d="m851.2 262.96l-35.354-35.355-116.25-116.24-35.36-35.36-62.757-62.756c-8.82-8.829-20.4-13.244-31.97-13.244-11.572 0-23.146 4.415-31.975 13.244l-233.08 233.08c-47.278 47.278-47.278 123.93 0 171.21l36.307 36.308 132.59 132.59 36.31 36.309c23.639 23.64 54.621 35.459 85.604 35.459s61.966-11.819 85.604-35.459l233.07-233.07c17.659-17.659 17.659-46.29 0-63.948l-62.74-62.76zm-276.11 231.28c-6.336 6.337-14.178 10.612-22.715 12.523-3.338 0.747-6.777 1.145-10.281 1.145-12.467 0-24.186-4.854-32.998-13.669l-76.137-76.136c-8.813-8.812-13.668-20.532-13.668-32.998 0-3.56 0.409-7.055 1.181-10.441 1.928-8.476 6.19-16.258 12.487-22.555 8.813-8.814 20.532-13.668 32.997-13.668 12.466 0 24.186 4.854 32.998 13.668l3.092 3.092 69.621 69.622 3.423 3.423c8.814 8.812 13.669 20.531 13.669 32.998 0 12.48-4.86 24.2-13.67 33.01zm229.46-138.36l-45.319 45.319c-29.295 29.295-76.792 29.295-106.09 0l-127.15-127.15c-29.295-29.295-29.295-76.792 0-106.09l45.319-45.319c10.942-10.942 28.682-10.942 39.625 0l10.539 10.54 172.53 172.54 10.54 10.54c10.95 10.94 10.95 28.68 0 39.62z"/><path id="path13" d="m477.74 373.32c-3.146-3.147-7.333-4.882-11.785-4.882-4.45 0-8.637 1.733-11.783 4.882-3.147 3.147-4.882 7.333-4.882 11.783 0 4.452 1.733 8.639 4.882 11.785l76.136 76.136c3.146 3.147 7.333 4.882 11.785 4.882 4.45 0 8.637-1.733 11.783-4.882 3.147-3.147 4.882-7.333 4.882-11.783 0-4.452-1.733-8.639-4.882-11.785l-76.14-76.14z"/></g></g></svg>
