<?xml version="1.0" encoding="iso-8859-1"?>
<!-- Generator: Adobe Illustrator 16.0.0, SVG Export Plug-In . SVG Version: 6.00 Build 0)  -->
<!DOCTYPE svg PUBLIC "-//W3C//DTD SVG 1.1//EN" "http://www.w3.org/Graphics/SVG/1.1/DTD/svg11.dtd">
<svg xmlns="http://www.w3.org/2000/svg" xmlns:xlink="http://www.w3.org/1999/xlink" version="1.1" id="Capa_1" x="0px" y="0px" width="512px" height="512px" viewBox="0 0 927.198 927.197" style="enable-background:new 0 0 927.198 927.197;" xml:space="preserve">
<g>
	<g>
		<path d="M833.52,209.923l35.354,35.355l15.219-15.218c26.319-26.32,26.319-69.146,0-95.468l-91.49-91.49    c-12.75-12.749-29.702-19.771-47.732-19.771c-18.031,0-34.982,7.021-47.732,19.771l-15.219,15.219l35.355,35.355l15.219-15.219    c3.307-3.306,7.702-5.127,12.378-5.127c4.677,0,9.072,1.821,12.378,5.127l91.489,91.489c6.825,6.825,6.825,17.932,0,24.757    L833.52,209.923z" fill="#91DC5A"/>
		<path d="M56.352,738.253C19.738,774.867-22.547,876.515,14.068,913.13c28.087,28.087,94.438,9.746,140.35-16.849    c3.323-1.926,6.224-6.597,6.425-10.432c1.565-29.888,5.461-74.824,5.461-74.824c0.013-1.5,0.896-2.383,2.396-2.396l80.602-1.767    c2.064-0.045,3.727-1.709,3.77-3.773l1.687-80.521c0.013-1.5,0.896-2.383,2.397-2.396c0,0,52.667-0.465,74.189-0.659    c4.97-0.045,11.85-2.931,15.364-6.444c16.873-16.869,64.503-64.495,108.976-108.966L323.093,471.511L56.352,738.253z" fill="#91DC5A"/>
		<path d="M851.197,262.956l-35.354-35.355L699.597,111.355L664.242,76l-62.757-62.756C592.656,4.415,581.083,0,569.511,0    c-11.572,0-23.146,4.415-31.975,13.244L304.464,246.316c-47.278,47.278-47.278,123.932,0,171.209l36.307,36.308l132.591,132.591    l36.31,36.309c23.639,23.64,54.621,35.459,85.604,35.459s61.966-11.819,85.604-35.459l233.073-233.071    c17.659-17.659,17.659-46.29,0-63.948L851.197,262.956z M575.087,494.239c-6.336,6.337-14.178,10.612-22.715,12.523    c-3.338,0.747-6.777,1.145-10.281,1.145c-12.467,0-24.186-4.854-32.998-13.669l-76.137-76.136    c-8.813-8.812-13.668-20.532-13.668-32.998c0-3.56,0.409-7.055,1.181-10.441c1.928-8.476,6.19-16.258,12.487-22.555    c8.813-8.814,20.532-13.668,32.997-13.668c12.466,0,24.186,4.854,32.998,13.668l3.092,3.092l69.621,69.622l3.423,3.423    c8.814,8.812,13.669,20.531,13.669,32.998C588.756,473.707,583.903,485.426,575.087,494.239z M804.553,355.884l-45.319,45.319    c-29.295,29.295-76.792,29.295-106.087,0L525.994,274.05c-29.295-29.295-29.295-76.792,0-106.087l45.319-45.319    c10.942-10.942,28.682-10.942,39.625,0l10.539,10.54L794.014,305.72l10.54,10.54C815.495,327.201,815.495,344.942,804.553,355.884    z" fill="#91DC5A"/>
		<path d="M477.74,373.321c-3.146-3.147-7.333-4.882-11.785-4.882c-4.45,0-8.637,1.733-11.783,4.882    c-3.147,3.147-4.882,7.333-4.882,11.783c0,4.452,1.733,8.639,4.882,11.785l76.136,76.136c3.146,3.147,7.333,4.882,11.785,4.882    c4.45,0,8.637-1.733,11.783-4.882c3.147-3.147,4.882-7.333,4.882-11.783c0-4.452-1.733-8.639-4.882-11.785L477.74,373.321z" fill="#91DC5A"/>
	</g>
</g>
<g>
</g>
<g>
</g>
<g>
</g>
<g>
</g>
<g>
</g>
<g>
</g>
<g>
</g>
<g>
</g>
<g>
</g>
<g>
</g>
<g>
</g>
<g>
</g>
<g>
</g>
<g>
</g>
<g>
</g>
</svg>
