<?xml version="1.0" encoding="iso-8859-1"?>
<!-- Generator: Adobe Illustrator 16.0.0, SVG Export Plug-In . SVG Version: 6.00 Build 0)  -->
<!DOCTYPE svg PUBLIC "-//W3C//DTD SVG 1.1//EN" "http://www.w3.org/Graphics/SVG/1.1/DTD/svg11.dtd">
<svg xmlns="http://www.w3.org/2000/svg" xmlns:xlink="http://www.w3.org/1999/xlink" version="1.1" id="Capa_1" x="0px" y="0px" width="512px" height="512px" viewBox="0 0 950.001 950.001" style="enable-background:new 0 0 950.001 950.001;" xml:space="preserve">
<g>
	<g>
		<path d="M2.479,576.914c0.47,4.986,1.029,9.965,1.677,14.933c0.216,1.656,0.442,3.311,0.678,4.964    c0.472,3.307,0.984,6.61,1.535,9.906c1.448,8.653,3.169,17.268,5.164,25.829c0.665,2.854,1.36,5.7,2.086,8.542    c7.246,28.359,17.526,56.07,30.847,82.602c2.049,4.082,4.171,8.135,6.364,12.159c2.193,4.023,4.459,8.018,6.796,11.979    c17.531,29.717,39.113,57.646,64.76,82.967c1.261,1.245,2.529,2.481,3.802,3.707c0.213,0.205,0.429,0.406,0.643,0.611    c1.06,1.016,2.121,2.029,3.189,3.032c0.462,0.434,0.928,0.858,1.392,1.29c0.824,0.767,1.646,1.535,2.475,2.294    c0.58,0.531,1.164,1.052,1.746,1.579c0.718,0.649,1.433,1.303,2.154,1.947c0.674,0.602,1.354,1.193,2.031,1.789    c0.634,0.559,1.265,1.121,1.901,1.676c0.779,0.677,1.563,1.345,2.345,2.016c0.539,0.462,1.076,0.93,1.617,1.389    c0.835,0.709,1.677,1.407,2.516,2.108c0.495,0.413,0.986,0.831,1.483,1.241c0.892,0.737,1.79,1.465,2.686,2.193    c0.447,0.364,0.892,0.732,1.34,1.095c0.944,0.761,1.894,1.512,2.843,2.263c0.406,0.322,0.809,0.647,1.216,0.967    c1.002,0.787,2.009,1.563,3.016,2.34c0.358,0.276,0.713,0.557,1.072,0.831c1.05,0.803,2.104,1.597,3.16,2.39    c0.32,0.239,0.638,0.484,0.959,0.724c1.084,0.809,2.173,1.606,3.262,2.403c0.296,0.216,0.59,0.437,0.887,0.651    c1.127,0.819,2.26,1.628,3.393,2.436c0.261,0.186,0.521,0.375,0.782,0.561c1.167,0.826,2.338,1.642,3.512,2.454    c0.232,0.16,0.462,0.324,0.693,0.484c1.195,0.823,2.395,1.637,3.597,2.447c0.213,0.144,0.424,0.29,0.637,0.434    c1.231,0.826,2.466,1.642,3.704,2.454c0.186,0.122,0.37,0.245,0.555,0.366c1.252,0.818,2.509,1.626,3.768,2.43    c0.174,0.11,0.346,0.224,0.521,0.335c1.276,0.811,2.557,1.611,3.84,2.408c0.158,0.098,0.316,0.198,0.474,0.297    c1.29,0.798,2.583,1.585,3.88,2.366c0.154,0.094,0.308,0.188,0.462,0.281c1.322,0.795,2.648,1.58,3.977,2.359    c0.128,0.075,0.256,0.153,0.384,0.228c1.347,0.788,2.698,1.565,4.051,2.336c0.113,0.064,0.225,0.131,0.338,0.194    c1.343,0.763,2.69,1.518,4.04,2.264c0.127,0.07,0.253,0.143,0.38,0.213c1.351,0.746,2.706,1.482,4.063,2.212    c0.125,0.067,0.25,0.137,0.376,0.203c1.368,0.734,2.74,1.457,4.115,2.176c0.115,0.06,0.229,0.122,0.344,0.181    c1.381,0.719,2.766,1.427,4.154,2.13c0.11,0.056,0.22,0.113,0.331,0.169c1.385,0.699,2.774,1.389,4.166,2.072    c0.114,0.056,0.228,0.114,0.343,0.17c1.382,0.677,2.769,1.344,4.157,2.004c0.125,0.061,0.25,0.121,0.375,0.18    c1.37,0.65,2.745,1.291,4.121,1.926c0.145,0.066,0.29,0.136,0.435,0.203c1.375,0.632,2.754,1.254,4.135,1.87    c0.145,0.065,0.289,0.132,0.433,0.195c1.37,0.61,2.743,1.209,4.118,1.803c0.159,0.069,0.318,0.14,0.477,0.208    c1.368,0.588,2.739,1.167,4.112,1.74c0.167,0.07,0.333,0.141,0.499,0.21c1.363,0.567,2.729,1.124,4.097,1.676    c0.179,0.072,0.356,0.146,0.535,0.219c1.359,0.546,2.721,1.082,4.085,1.612c0.188,0.073,0.376,0.148,0.564,0.223    c1.341,0.52,2.685,1.029,4.03,1.534c0.215,0.081,0.429,0.164,0.644,0.244c1.334,0.499,2.671,0.988,4.01,1.473    c0.224,0.081,0.448,0.165,0.673,0.245c1.308,0.472,2.619,0.933,3.932,1.391c0.261,0.091,0.521,0.184,0.782,0.275    c1.298,0.449,2.599,0.89,3.901,1.325c0.271,0.091,0.542,0.186,0.814,0.275c1.284,0.427,2.571,0.845,3.858,1.26    c0.294,0.095,0.587,0.192,0.881,0.286c1.261,0.403,2.522,0.795,3.785,1.186c0.324,0.101,0.647,0.203,0.973,0.303    c1.242,0.381,2.488,0.752,3.734,1.121c0.344,0.102,0.687,0.206,1.03,0.307c1.229,0.36,2.461,0.711,3.693,1.06    c0.361,0.104,0.724,0.208,1.087,0.311c1.204,0.337,2.41,0.665,3.615,0.991c0.396,0.106,0.79,0.217,1.187,0.321    c1.176,0.314,2.354,0.619,3.531,0.923c0.427,0.109,0.853,0.223,1.279,0.332c1.153,0.293,2.309,0.576,3.464,0.859    c0.452,0.111,0.904,0.225,1.357,0.334c1.128,0.272,2.259,0.536,3.389,0.799c0.483,0.112,0.966,0.229,1.448,0.338    c1.105,0.254,2.212,0.497,3.319,0.741c0.509,0.112,1.016,0.228,1.524,0.337c1.084,0.234,2.169,0.46,3.255,0.687    c0.533,0.11,1.067,0.225,1.603,0.334c1.06,0.216,2.122,0.423,3.183,0.631c0.562,0.11,1.121,0.222,1.683,0.329    c1.038,0.199,2.078,0.389,3.117,0.58c0.586,0.106,1.172,0.218,1.759,0.322c1.017,0.183,2.035,0.356,3.054,0.53    c0.609,0.104,1.219,0.211,1.829,0.313c0.991,0.165,1.983,0.321,2.975,0.479c0.642,0.103,1.282,0.207,1.925,0.307    c0.964,0.148,1.928,0.29,2.892,0.432c0.669,0.098,1.337,0.199,2.006,0.294c0.944,0.134,1.888,0.261,2.833,0.388    c0.691,0.094,1.382,0.189,2.074,0.279c0.925,0.12,1.85,0.233,2.776,0.347c0.711,0.088,1.422,0.178,2.134,0.262    c0.906,0.106,1.812,0.207,2.719,0.307c0.733,0.082,1.466,0.165,2.2,0.243c0.888,0.094,1.777,0.181,2.666,0.269    c0.751,0.074,1.502,0.151,2.254,0.223c0.873,0.081,1.747,0.156,2.621,0.232c0.769,0.067,1.538,0.136,2.307,0.199    c0.855,0.07,1.711,0.133,2.567,0.198c0.787,0.059,1.574,0.12,2.36,0.176c0.844,0.059,1.686,0.11,2.528,0.165    c0.802,0.051,1.604,0.104,2.405,0.149c0.83,0.048,1.659,0.091,2.489,0.134c0.813,0.042,1.628,0.086,2.442,0.123    c0.822,0.037,1.646,0.068,2.468,0.102c0.821,0.033,1.643,0.067,2.463,0.095c0.818,0.028,1.638,0.05,2.456,0.073    c0.826,0.023,1.651,0.048,2.478,0.066c0.811,0.018,1.621,0.029,2.432,0.043c0.835,0.014,1.67,0.027,2.506,0.036    c0.805,0.009,1.607,0.011,2.411,0.015c0.629,0.003,1.259,0.011,1.888,0.011c0.21,0,0.421-0.003,0.632-0.004    c0.817-0.001,1.635-0.008,2.453-0.014c0.833-0.007,1.667-0.012,2.5-0.022c0.814-0.011,1.629-0.028,2.443-0.044    c0.835-0.016,1.671-0.031,2.507-0.052c0.814-0.021,1.629-0.048,2.442-0.073c0.835-0.026,1.671-0.051,2.506-0.082    c0.81-0.03,1.618-0.065,2.427-0.101c0.844-0.036,1.687-0.071,2.529-0.113c0.795-0.039,1.59-0.084,2.385-0.128    c0.856-0.047,1.711-0.093,2.567-0.146c0.784-0.048,1.568-0.102,2.351-0.153c0.866-0.059,1.731-0.115,2.598-0.179    c0.771-0.056,1.541-0.118,2.312-0.179c0.879-0.069,1.758-0.137,2.637-0.212c0.753-0.064,1.506-0.135,2.26-0.203    c0.896-0.081,1.792-0.161,2.688-0.249c0.73-0.071,1.46-0.147,2.191-0.223c0.917-0.094,1.833-0.188,2.75-0.287    c0.714-0.078,1.427-0.162,2.14-0.244c0.932-0.106,1.861-0.212,2.792-0.325c0.695-0.084,1.391-0.175,2.084-0.262    c0.949-0.12,1.898-0.239,2.847-0.366c0.67-0.089,1.339-0.185,2.008-0.276c0.973-0.136,1.945-0.27,2.917-0.41    c0.645-0.095,1.289-0.194,1.933-0.291c0.995-0.15,1.99-0.299,2.984-0.456c0.62-0.099,1.239-0.201,1.858-0.302    c1.017-0.165,2.032-0.33,3.048-0.504c0.598-0.102,1.195-0.209,1.793-0.313c1.036-0.181,2.073-0.362,3.108-0.552    c0.568-0.104,1.135-0.213,1.703-0.319c1.064-0.199,2.128-0.398,3.19-0.604c0.539-0.105,1.077-0.217,1.615-0.323    c1.091-0.217,2.181-0.436,3.27-0.661c0.508-0.105,1.015-0.216,1.522-0.323c1.116-0.236,2.232-0.473,3.347-0.719    c0.483-0.107,0.968-0.218,1.452-0.327c1.138-0.255,2.274-0.511,3.41-0.775c0.454-0.104,0.906-0.216,1.36-0.322    c1.163-0.275,2.326-0.552,3.487-0.837c0.432-0.106,0.864-0.218,1.296-0.325c1.18-0.294,2.36-0.59,3.538-0.895    c0.406-0.104,0.812-0.214,1.218-0.32c1.205-0.315,2.41-0.634,3.613-0.959c0.371-0.102,0.74-0.205,1.109-0.308    c1.234-0.338,2.468-0.679,3.698-1.03c0.349-0.099,0.696-0.201,1.044-0.302c1.253-0.359,2.505-0.723,3.755-1.095    c0.317-0.094,0.634-0.192,0.95-0.287c1.28-0.384,2.561-0.771,3.836-1.169c0.286-0.089,0.57-0.181,0.855-0.27    c1.304-0.408,2.606-0.821,3.908-1.242c0.268-0.087,0.534-0.177,0.803-0.265c1.317-0.43,2.634-0.863,3.948-1.308    c0.244-0.083,0.488-0.169,0.733-0.252c1.335-0.454,2.668-0.911,3.999-1.379c0.225-0.079,0.448-0.161,0.672-0.24    c1.351-0.477,2.699-0.959,4.046-1.45c0.201-0.073,0.402-0.149,0.604-0.224c1.368-0.502,2.734-1.008,4.097-1.525    c0.18-0.067,0.357-0.138,0.536-0.206c1.384-0.526,2.768-1.059,4.147-1.601c0.157-0.062,0.314-0.126,0.472-0.188    c1.398-0.552,2.795-1.108,4.188-1.676c0.146-0.06,0.292-0.121,0.438-0.181c1.403-0.573,2.805-1.152,4.203-1.742    c0.138-0.058,0.275-0.119,0.414-0.177c1.405-0.594,2.81-1.195,4.21-1.807c0.123-0.054,0.246-0.108,0.37-0.163    c1.413-0.616,2.822-1.24,4.229-1.875c0.122-0.055,0.244-0.111,0.367-0.167c1.408-0.636,2.814-1.278,4.216-1.932    c0.112-0.052,0.224-0.105,0.335-0.158c1.413-0.659,2.824-1.325,4.231-2.002c0.09-0.043,0.181-0.088,0.271-0.132    c1.426-0.686,2.849-1.379,4.267-2.083c0.089-0.044,0.177-0.089,0.265-0.133c1.421-0.706,2.84-1.419,4.254-2.143    c0.076-0.039,0.152-0.078,0.229-0.117c1.423-0.729,2.844-1.466,4.26-2.211c0.091-0.049,0.182-0.099,0.272-0.146    c1.403-0.74,2.803-1.488,4.198-2.246c0.088-0.048,0.175-0.097,0.264-0.145c1.397-0.761,2.793-1.528,4.184-2.306    c0.087-0.049,0.174-0.099,0.261-0.147c1.392-0.779,2.778-1.565,4.162-2.361c0.088-0.051,0.175-0.103,0.263-0.153    c1.382-0.796,2.76-1.599,4.133-2.411c0.104-0.062,0.207-0.125,0.311-0.188c1.357-0.805,2.711-1.616,4.062-2.438    c0.109-0.067,0.219-0.137,0.328-0.203c1.345-0.82,2.685-1.646,4.021-2.483c0.103-0.063,0.205-0.131,0.308-0.195    c1.34-0.841,2.679-1.688,4.011-2.546c0.118-0.076,0.235-0.154,0.354-0.23c1.316-0.85,2.63-1.704,3.938-2.57    c0.131-0.086,0.261-0.175,0.391-0.262c1.294-0.858,2.586-1.723,3.873-2.597c0.152-0.104,0.305-0.21,0.457-0.313    c1.264-0.861,2.524-1.728,3.781-2.604c0.168-0.116,0.334-0.236,0.502-0.354c1.238-0.867,2.475-1.739,3.705-2.621    c0.192-0.137,0.383-0.278,0.574-0.416c1.206-0.867,2.409-1.738,3.608-2.62c0.206-0.151,0.41-0.306,0.615-0.458    c1.181-0.872,2.359-1.748,3.533-2.635c0.244-0.185,0.485-0.372,0.729-0.557c1.134-0.859,2.266-1.723,3.393-2.596    c0.273-0.212,0.544-0.428,0.817-0.641c1.094-0.854,2.187-1.707,3.275-2.572c0.297-0.236,0.592-0.478,0.889-0.716    c1.058-0.846,2.116-1.694,3.167-2.552c0.35-0.286,0.698-0.578,1.047-0.865c0.997-0.819,1.993-1.638,2.984-2.467    c0.351-0.294,0.699-0.596,1.05-0.891c0.983-0.83,1.969-1.659,2.947-2.5c0.382-0.328,0.761-0.663,1.143-0.993    c0.941-0.814,1.883-1.628,2.819-2.452c0.444-0.394,0.886-0.792,1.331-1.188c0.868-0.771,1.737-1.542,2.602-2.323    c0.457-0.413,0.909-0.833,1.364-1.248c0.846-0.771,1.693-1.541,2.535-2.319c0.506-0.47,1.007-0.947,1.511-1.419    c0.784-0.734,1.57-1.466,2.35-2.207c0.627-0.597,1.248-1.202,1.872-1.803c0.653-0.628,1.308-1.251,1.957-1.885    c0.61-0.594,1.213-1.198,1.82-1.797c0.657-0.648,1.317-1.293,1.972-1.947l93.775-93.774l140.663-140.663    c3.908-3.909,6.642-8.548,8.198-13.479c0.223-0.704,0.422-1.415,0.596-2.13c0.127-0.52,0.24-1.042,0.343-1.566    c0.305-1.573,0.495-3.164,0.571-4.761c0.024-0.532,0.037-1.063,0.037-1.596s-0.013-1.064-0.037-1.596    c-0.076-1.596-0.267-3.187-0.571-4.761c-0.406-2.098-1.015-4.164-1.827-6.167c-1.252-3.087-2.991-6.021-5.208-8.692    c-0.339-0.408-0.688-0.812-1.048-1.207c-0.341-0.376-0.692-0.746-1.055-1.109l-68.604-68.603l-68.603-68.604    c-0.812-0.812-1.656-1.574-2.527-2.284s-1.771-1.37-2.693-1.979c-0.403-0.267-0.812-0.523-1.224-0.771    c-2.887-1.729-5.979-2.982-9.164-3.76c-1.56-0.381-3.142-0.646-4.732-0.8c-1.062-0.102-2.125-0.152-3.19-0.152l0,0    c-0.532,0-1.065,0.014-1.596,0.038c-0.531,0.025-1.063,0.063-1.594,0.114c-0.529,0.051-1.06,0.114-1.588,0.19    c-1.583,0.229-3.153,0.57-4.696,1.027c-1.029,0.304-2.047,0.66-3.049,1.066s-1.986,0.863-2.953,1.371    c-0.966,0.508-1.911,1.065-2.835,1.675c-1.845,1.218-3.596,2.64-5.22,4.264L548.513,617.05c-0.939,0.938-1.889,1.863-2.847,2.774    c-0.301,0.286-0.607,0.562-0.911,0.845c-0.66,0.617-1.319,1.238-1.988,1.844c-0.359,0.325-0.727,0.638-1.088,0.959    c-0.62,0.55-1.239,1.104-1.866,1.643c-0.389,0.333-0.783,0.654-1.173,0.983c-0.608,0.512-1.216,1.029-1.829,1.53    c-0.409,0.334-0.825,0.655-1.237,0.984c-0.604,0.483-1.206,0.97-1.816,1.443c-0.419,0.324-0.844,0.637-1.265,0.957    c-0.61,0.463-1.218,0.93-1.834,1.383c-0.426,0.312-0.857,0.615-1.286,0.923c-0.619,0.446-1.235,0.896-1.859,1.331    c-0.428,0.298-0.861,0.585-1.291,0.879c-0.633,0.433-1.263,0.867-1.899,1.288c-0.433,0.286-0.87,0.561-1.305,0.842    c-0.641,0.414-1.279,0.832-1.924,1.236c-0.44,0.275-0.886,0.54-1.327,0.81c-0.647,0.396-1.293,0.796-1.945,1.183    c-0.441,0.261-0.886,0.511-1.329,0.767c-0.659,0.381-1.317,0.767-1.979,1.138c-0.445,0.248-0.895,0.486-1.342,0.73    c-0.667,0.364-1.333,0.731-2.004,1.085c-0.451,0.238-0.905,0.465-1.358,0.698c-0.672,0.346-1.344,0.695-2.021,1.03    c-0.458,0.227-0.92,0.443-1.38,0.667c-0.676,0.326-1.351,0.656-2.031,0.973c-0.464,0.216-0.932,0.422-1.396,0.633    c-0.683,0.311-1.362,0.621-2.047,0.92c-0.47,0.205-0.941,0.399-1.411,0.6c-0.687,0.291-1.371,0.585-2.061,0.865    c-0.477,0.195-0.957,0.38-1.436,0.569c-0.688,0.272-1.374,0.547-2.064,0.81c-0.485,0.185-0.975,0.358-1.463,0.538    c-0.685,0.253-1.37,0.508-2.058,0.749c-0.499,0.177-1.002,0.343-1.502,0.514c-0.682,0.231-1.361,0.466-2.044,0.688    c-0.509,0.166-1.021,0.322-1.531,0.482c-0.679,0.213-1.357,0.428-2.038,0.632c-0.517,0.154-1.035,0.299-1.553,0.448    c-0.679,0.194-1.357,0.392-2.038,0.578c-0.526,0.143-1.053,0.276-1.58,0.415c-0.675,0.176-1.349,0.354-2.026,0.521    c-0.536,0.132-1.073,0.255-1.61,0.382c-0.671,0.158-1.342,0.318-2.015,0.467c-0.545,0.121-1.092,0.232-1.638,0.348    c-0.667,0.14-1.332,0.281-2,0.414c-0.556,0.108-1.113,0.209-1.67,0.312c-0.66,0.123-1.32,0.247-1.981,0.36    c-0.567,0.098-1.137,0.186-1.704,0.276c-0.652,0.105-1.306,0.212-1.958,0.309c-0.575,0.085-1.151,0.16-1.727,0.239    c-0.649,0.089-1.301,0.179-1.952,0.259c-0.58,0.07-1.16,0.134-1.74,0.198c-0.646,0.072-1.294,0.146-1.94,0.211    c-0.59,0.058-1.18,0.107-1.771,0.159c-0.639,0.057-1.277,0.113-1.918,0.161c-0.595,0.045-1.19,0.081-1.786,0.119    c-0.638,0.041-1.274,0.082-1.911,0.115c-0.6,0.031-1.197,0.052-1.796,0.076c-0.635,0.024-1.269,0.051-1.903,0.068    c-0.602,0.017-1.202,0.024-1.803,0.034c-0.635,0.01-1.268,0.021-1.901,0.023c-0.615,0.002-1.229-0.004-1.843-0.009    c-0.607-0.006-1.213-0.01-1.819-0.021c-0.618-0.012-1.236-0.033-1.854-0.053c-0.604-0.02-1.207-0.037-1.811-0.064    c-0.623-0.026-1.245-0.062-1.867-0.098c-0.598-0.034-1.194-0.065-1.793-0.106c-0.625-0.042-1.25-0.094-1.875-0.144    c-0.595-0.048-1.188-0.093-1.782-0.148c-0.629-0.057-1.256-0.124-1.883-0.188c-0.589-0.062-1.178-0.12-1.766-0.188    c-0.632-0.073-1.263-0.156-1.894-0.236c-0.582-0.074-1.165-0.147-1.746-0.229c-0.637-0.089-1.271-0.188-1.906-0.285    c-0.575-0.088-1.15-0.173-1.724-0.267c-0.643-0.105-1.282-0.222-1.924-0.335c-0.563-0.101-1.129-0.198-1.692-0.305    c-0.647-0.122-1.292-0.255-1.938-0.386c-0.556-0.112-1.111-0.222-1.667-0.341c-0.652-0.14-1.303-0.29-1.955-0.438    c-0.544-0.124-1.089-0.243-1.631-0.375c-0.66-0.157-1.317-0.326-1.976-0.493c-0.532-0.136-1.065-0.267-1.596-0.406    c-0.664-0.176-1.325-0.363-1.987-0.549c-0.522-0.146-1.045-0.288-1.566-0.439c-0.667-0.194-1.331-0.4-1.996-0.604    c-0.513-0.157-1.025-0.311-1.537-0.473c-0.669-0.212-1.335-0.437-2.002-0.659c-0.503-0.168-1.008-0.331-1.51-0.504    c-0.67-0.23-1.337-0.474-2.005-0.715c-0.495-0.178-0.991-0.352-1.484-0.536c-0.672-0.25-1.34-0.513-2.009-0.772    c-0.484-0.188-0.97-0.372-1.453-0.565c-0.673-0.27-1.342-0.552-2.011-0.832c-0.475-0.198-0.952-0.392-1.425-0.595    c-0.673-0.289-1.342-0.591-2.011-0.89c-0.466-0.208-0.933-0.41-1.396-0.623c-0.671-0.309-1.338-0.631-2.006-0.948    c-0.457-0.218-0.917-0.431-1.372-0.654c-0.666-0.326-1.327-0.666-1.99-1.002c-0.452-0.229-0.906-0.454-1.355-0.688    c-0.658-0.344-1.312-0.699-1.964-1.053c-0.449-0.242-0.901-0.479-1.35-0.727c-0.652-0.361-1.299-0.736-1.947-1.107    c-0.441-0.253-0.887-0.5-1.326-0.759c-0.646-0.379-1.285-0.771-1.927-1.16c-0.438-0.266-0.878-0.524-1.312-0.795    c-0.638-0.396-1.271-0.807-1.904-1.214c-0.431-0.276-0.866-0.547-1.295-0.829c-0.627-0.411-1.247-0.837-1.869-1.259    c-0.43-0.292-0.864-0.577-1.292-0.874c-0.611-0.424-1.216-0.863-1.823-1.297c-0.431-0.308-0.864-0.609-1.293-0.923    c-0.602-0.441-1.197-0.896-1.795-1.347c-0.425-0.321-0.854-0.635-1.275-0.961c-0.597-0.46-1.186-0.935-1.776-1.404    c-0.416-0.331-0.835-0.654-1.249-0.99c-0.595-0.484-1.181-0.982-1.77-1.476c-0.402-0.337-0.808-0.666-1.206-1.008    c-0.591-0.506-1.174-1.027-1.761-1.545c-0.389-0.343-0.781-0.679-1.168-1.026c-0.61-0.552-1.212-1.117-1.815-1.681    c-0.353-0.327-0.709-0.647-1.059-0.979c-0.778-0.74-1.548-1.495-2.314-2.254c-0.167-0.165-0.338-0.325-0.504-0.491    c-5.603-5.596-10.68-11.52-15.23-17.706c-2.275-3.094-4.421-6.254-6.434-9.473c-4.698-7.511-8.682-15.341-11.95-23.394    c-1.401-3.451-2.671-6.942-3.809-10.468c-1.139-3.525-2.146-7.083-3.021-10.667c-0.584-2.389-1.108-4.79-1.577-7.199    c-0.233-1.205-0.453-2.412-0.656-3.621c-0.308-1.812-0.581-3.631-0.822-5.453c-0.724-5.464-1.151-10.96-1.284-16.462    c-0.059-2.444-0.059-4.892-0.002-7.337c0.171-7.237,0.853-14.465,2.047-21.624c0.597-3.579,1.322-7.142,2.174-10.679    c0.426-1.769,0.885-3.531,1.375-5.287c3.432-12.29,8.429-24.233,14.988-35.519c1.874-3.225,3.876-6.396,6.006-9.504    c1.128-1.646,2.29-3.276,3.489-4.888c1.982-2.664,4.062-5.277,6.24-7.837c0.236-0.278,0.475-0.558,0.714-0.835    c2.425-2.807,4.965-5.549,7.627-8.215c0.022-0.023,0.046-0.047,0.068-0.071L435.24,297.965l1.281-1.281l102.663-102.663    c1.127-1.127,2.148-2.318,3.081-3.555c0.57-0.759,1.105-1.537,1.604-2.331c6.969-11.121,6.74-25.462-0.695-36.366    c-0.531-0.779-1.1-1.54-1.704-2.281c-0.711-0.871-1.473-1.715-2.284-2.527l-34.302-34.302L401.98,9.747    c-12.996-12.996-34.066-12.996-47.062,0L253.506,111.16l0,0l-98.416,98.416l0,0l-32.696,32.696    c-1.659,1.659-3.302,3.33-4.928,5.011c-19.509,20.174-36.582,41.89-51.214,64.76c-1.219,1.906-2.422,3.82-3.607,5.741    c-2.371,3.843-4.674,7.718-6.909,11.621c-4.79,8.365-9.268,16.865-13.434,25.481c-2.5,5.17-4.887,10.382-7.163,15.632    c-1.348,3.111-2.657,6.236-3.927,9.373c-0.811,2.003-1.599,4.014-2.378,6.028c-1.5,3.879-2.94,7.775-4.32,11.689    c-0.847,2.402-1.672,4.811-2.474,7.226c-1.462,4.401-2.855,8.821-4.167,13.261c-0.477,1.613-0.944,3.228-1.401,4.845    c-0.794,2.809-1.552,5.626-2.286,8.449c-0.534,2.053-1.058,4.106-1.561,6.167c-0.398,1.63-0.786,3.262-1.164,4.896    c-1.071,4.629-2.059,9.274-2.971,13.933c-0.105,0.534-0.208,1.066-0.311,1.602c-0.581,3.03-1.133,6.064-1.647,9.104    c-0.558,3.3-1.077,6.605-1.557,9.917c-0.48,3.31-0.919,6.625-1.319,9.943c-0.584,4.84-1.081,9.689-1.496,14.544    c-0.154,1.803-0.299,3.605-0.43,5.409c-0.358,4.928-0.628,9.862-0.812,14.797c-0.189,5.073-0.288,10.148-0.295,15.223    c-0.008,6.675,0.142,13.349,0.451,20.017C1.384,563.606,1.852,570.268,2.479,576.914z M573.216,627.702l98.416-98.416    l148.911,148.912l-98.416,98.416L573.216,627.702z M271.184,128.838L420.097,277.75l-98.416,98.416L172.767,227.254    L271.184,128.838z" fill="#91DC5A"/>
	</g>
</g>
<g>
</g>
<g>
</g>
<g>
</g>
<g>
</g>
<g>
</g>
<g>
</g>
<g>
</g>
<g>
</g>
<g>
</g>
<g>
</g>
<g>
</g>
<g>
</g>
<g>
</g>
<g>
</g>
<g>
</g>
</svg>
