<svg xmlns="http://www.w3.org/2000/svg" height="512" width="512" viewBox="0 0 950.001 950.001" enable-background="new 0 0 950.001 950.001"><path d="M2.479 576.91c.47 4.986 1.029 9.965 1.677 14.933.216 1.656.442 3.311.678 4.964.472 3.307.984 6.61 1.535 9.906 1.448 8.653 3.169 17.268 5.164 25.829.665 2.854 1.36 5.7 2.086 8.542 7.246 28.359 17.526 56.07 30.847 82.602 2.049 4.082 4.171 8.135 6.364 12.159 2.193 4.023 4.459 8.018 6.796 11.979 17.531 29.717 39.113 57.646 64.76 82.967 1.261 1.245 2.529 2.481 3.802 3.707l.643.611c1.06 1.016 2.121 2.029 3.189 3.032l1.392 1.29c.824.767 1.646 1.535 2.475 2.294.58.531 1.164 1.052 1.746 1.579.718.649 1.433 1.303 2.154 1.947.674.602 1.354 1.193 2.031 1.789.634.559 1.265 1.121 1.901 1.676.779.677 1.563 1.345 2.345 2.016.539.462 1.076.93 1.617 1.389.835.709 1.677 1.407 2.516 2.108l1.483 1.241c.892.737 1.79 1.465 2.686 2.193l1.34 1.095c.944.761 1.894 1.512 2.843 2.263l1.216.967c1.002.787 2.009 1.563 3.016 2.34l1.072.831c1.05.803 2.104 1.597 3.16 2.39l.959.724c1.084.809 2.173 1.606 3.262 2.403l.887.651c1.127.819 2.26 1.628 3.393 2.436l.782.561c1.167.826 2.338 1.642 3.512 2.454l.693.484c1.195.823 2.395 1.637 3.597 2.447l.637.434c1.231.826 2.466 1.642 3.704 2.454l.555.366c1.252.818 2.509 1.626 3.768 2.43l.521.335c1.276.811 2.557 1.611 3.84 2.408l.474.297c1.29.798 2.583 1.585 3.88 2.366l.462.281c1.322.795 2.648 1.58 3.977 2.359l.384.228c1.347.788 2.698 1.565 4.051 2.336l.338.194c1.343.763 2.69 1.518 4.04 2.264l.38.213c1.351.746 2.706 1.482 4.063 2.212l.376.203c1.368.734 2.74 1.457 4.115 2.176l.344.181c1.381.719 2.766 1.427 4.154 2.13l.331.169c1.385.699 2.774 1.389 4.166 2.072l.343.17c1.382.677 2.769 1.344 4.157 2.004l.375.18c1.37.65 2.745 1.291 4.121 1.926l.435.203c1.375.632 2.754 1.254 4.135 1.87l.433.195c1.37.61 2.743 1.209 4.118 1.803l.477.208c1.368.588 2.739 1.167 4.112 1.74l.499.21c1.363.567 2.729 1.124 4.097 1.676l.535.219c1.359.546 2.721 1.082 4.085 1.612l.564.223c1.341.52 2.685 1.029 4.03 1.534l.644.244c1.334.499 2.671.988 4.01 1.473l.673.245c1.308.472 2.619.933 3.932 1.391l.782.275c1.298.449 2.599.89 3.901 1.325l.814.275c1.284.427 2.571.845 3.858 1.26l.881.286c1.261.403 2.522.795 3.785 1.186l.973.303c1.242.381 2.488.752 3.734 1.121l1.03.307c1.229.36 2.461.711 3.693 1.06l1.087.311c1.204.337 2.41.665 3.615.991l1.187.321c1.176.314 2.354.619 3.531.923l1.279.332c1.153.293 2.309.576 3.464.859l1.357.334c1.128.272 2.259.536 3.389.799l1.448.338c1.105.254 2.212.497 3.319.741l1.524.337c1.084.234 2.169.46 3.255.687l1.603.334c1.06.216 2.122.423 3.183.631l1.683.329c1.038.199 2.078.389 3.117.58l1.759.322c1.017.183 2.035.356 3.054.53l1.829.313c.991.165 1.983.321 2.975.479l1.925.307c.964.148 1.928.29 2.892.432l2.006.294c.944.134 1.888.261 2.833.388.691.094 1.382.189 2.074.279.925.12 1.85.233 2.776.347.711.088 1.422.178 2.134.262.906.106 1.812.207 2.719.307.733.082 1.466.165 2.2.243.888.094 1.777.181 2.666.269l2.254.223c.873.081 1.747.156 2.621.232.769.067 1.538.136 2.307.199.855.07 1.711.133 2.567.198l2.36.176c.844.059 1.686.11 2.528.165.802.051 1.604.104 2.405.149.83.048 1.659.091 2.489.134.813.042 1.628.086 2.442.123l2.468.102c.821.033 1.643.067 2.463.095.818.028 1.638.05 2.456.073.826.023 1.651.048 2.478.066.811.018 1.621.029 2.432.043.835.014 1.67.027 2.506.036.805.009 1.607.011 2.411.015l1.888.011.632-.004c.817-.001 1.635-.008 2.453-.014.833-.007 1.667-.012 2.5-.022.814-.011 1.629-.028 2.443-.044.835-.016 1.671-.031 2.507-.052.814-.021 1.629-.048 2.442-.073.835-.026 1.671-.051 2.506-.082.81-.03 1.618-.065 2.427-.101.844-.036 1.687-.071 2.529-.113.795-.039 1.59-.084 2.385-.128.856-.047 1.711-.093 2.567-.146l2.351-.153c.866-.059 1.731-.115 2.598-.179.771-.056 1.541-.118 2.312-.179.879-.069 1.758-.137 2.637-.212.753-.064 1.506-.135 2.26-.203.896-.081 1.792-.161 2.688-.249.73-.071 1.46-.147 2.191-.223.917-.094 1.833-.188 2.75-.287.714-.078 1.427-.162 2.14-.244.932-.106 1.861-.212 2.792-.325l2.084-.262c.949-.12 1.898-.239 2.847-.366l2.008-.276c.973-.136 1.945-.27 2.917-.41l1.933-.291c.995-.15 1.99-.299 2.984-.456l1.858-.302c1.017-.165 2.032-.33 3.048-.504l1.793-.313c1.036-.181 2.073-.362 3.108-.552l1.703-.319c1.064-.199 2.128-.398 3.19-.604l1.615-.323c1.091-.217 2.181-.436 3.27-.661l1.522-.323c1.116-.236 2.232-.473 3.347-.719l1.452-.327c1.138-.255 2.274-.511 3.41-.775l1.36-.322c1.163-.275 2.326-.552 3.487-.837l1.296-.325c1.18-.294 2.36-.59 3.538-.895l1.218-.32c1.205-.315 2.41-.634 3.613-.959l1.109-.308c1.234-.338 2.468-.679 3.698-1.03l1.044-.302c1.253-.359 2.505-.723 3.755-1.095l.95-.287c1.28-.384 2.561-.771 3.836-1.169l.855-.27c1.304-.408 2.606-.821 3.908-1.242l.803-.265c1.317-.43 2.634-.863 3.948-1.308l.733-.252c1.335-.454 2.668-.911 3.999-1.379l.672-.24c1.351-.477 2.699-.959 4.046-1.45l.604-.224c1.368-.502 2.734-1.008 4.097-1.525l.536-.206c1.384-.526 2.768-1.059 4.147-1.601l.472-.188c1.398-.552 2.795-1.108 4.188-1.676l.438-.181c1.403-.573 2.805-1.152 4.203-1.742l.414-.177c1.405-.594 2.81-1.195 4.21-1.807l.37-.163c1.413-.616 2.822-1.24 4.229-1.875l.367-.167c1.408-.636 2.814-1.278 4.216-1.932l.335-.158c1.413-.659 2.824-1.325 4.231-2.002l.271-.132c1.426-.686 2.849-1.379 4.267-2.083l.265-.133c1.421-.706 2.84-1.419 4.254-2.143l.229-.117c1.423-.729 2.844-1.466 4.26-2.211l.272-.146c1.403-.74 2.803-1.488 4.198-2.246l.264-.145c1.397-.761 2.793-1.528 4.184-2.306l.261-.147c1.392-.779 2.778-1.565 4.162-2.361l.263-.153c1.382-.796 2.76-1.599 4.133-2.411l.311-.188c1.357-.805 2.711-1.616 4.062-2.438l.328-.203c1.345-.82 2.685-1.646 4.021-2.483l.308-.195c1.34-.841 2.679-1.688 4.011-2.546l.354-.23c1.316-.85 2.63-1.704 3.938-2.57l.391-.262c1.294-.858 2.586-1.723 3.873-2.597l.457-.313c1.264-.861 2.524-1.728 3.781-2.604l.502-.354c1.238-.867 2.475-1.739 3.705-2.621l.574-.416c1.206-.867 2.409-1.738 3.608-2.62l.615-.458c1.181-.872 2.359-1.748 3.533-2.635l.729-.557c1.134-.859 2.266-1.723 3.393-2.596l.817-.641c1.094-.854 2.187-1.707 3.275-2.572l.889-.716c1.058-.846 2.116-1.694 3.167-2.552l1.047-.865c.997-.819 1.993-1.638 2.984-2.467l1.05-.891c.983-.83 1.969-1.659 2.947-2.5l1.143-.993c.941-.814 1.883-1.628 2.819-2.452l1.331-1.188c.868-.771 1.737-1.542 2.602-2.323l1.364-1.248c.846-.771 1.693-1.541 2.535-2.319l1.511-1.419c.784-.734 1.57-1.466 2.35-2.207.627-.597 1.248-1.202 1.872-1.803.653-.628 1.308-1.251 1.957-1.885.61-.594 1.213-1.198 1.82-1.797.657-.648 1.317-1.293 1.972-1.947l93.775-93.774 140.66-140.66c3.908-3.909 6.642-8.548 8.198-13.479.223-.704.422-1.415.596-2.13.127-.52.24-1.042.343-1.566.305-1.573.495-3.164.571-4.761.024-.532.037-1.063.037-1.596s-.013-1.064-.037-1.596c-.076-1.596-.267-3.187-.571-4.761-.406-2.098-1.015-4.164-1.827-6.167-1.252-3.087-2.991-6.021-5.208-8.692-.339-.408-.688-.812-1.048-1.207-.341-.376-.692-.746-1.055-1.109l-68.604-68.603-68.603-68.604c-.812-.812-1.656-1.574-2.527-2.284s-1.771-1.37-2.693-1.979c-.403-.267-.812-.523-1.224-.771-2.887-1.729-5.979-2.982-9.164-3.76-1.56-.381-3.142-.646-4.732-.8-1.062-.102-2.125-.152-3.19-.152-.532 0-1.065.014-1.596.038-.531.025-1.063.063-1.594.114-.529.051-1.06.114-1.588.19-1.583.229-3.153.57-4.696 1.027-1.029.304-2.047.66-3.049 1.066s-1.986.863-2.953 1.371c-.966.508-1.911 1.065-2.835 1.675-1.845 1.218-3.596 2.64-5.22 4.264l-206.83 206.87c-.939.938-1.889 1.863-2.847 2.774l-.911.845c-.66.617-1.319 1.238-1.988 1.844l-1.088.959c-.62.55-1.239 1.104-1.866 1.643l-1.173.983c-.608.512-1.216 1.029-1.829 1.53-.409.334-.825.655-1.237.984-.604.483-1.206.97-1.816 1.443l-1.265.957c-.61.463-1.218.93-1.834 1.383-.426.312-.857.615-1.286.923-.619.446-1.235.896-1.859 1.331l-1.291.879c-.633.433-1.263.867-1.899 1.288-.433.286-.87.561-1.305.842-.641.414-1.279.832-1.924 1.236l-1.327.81c-.647.396-1.293.796-1.945 1.183-.441.261-.886.511-1.329.767-.659.381-1.317.767-1.979 1.138l-1.342.73c-.667.364-1.333.731-2.004 1.085-.451.238-.905.465-1.358.698-.672.346-1.344.695-2.021 1.03l-1.38.667c-.676.326-1.351.656-2.031.973l-1.396.633c-.683.311-1.362.621-2.047.92l-1.411.6c-.687.291-1.371.585-2.061.865-.477.195-.957.38-1.436.569-.688.272-1.374.547-2.064.81-.485.185-.975.358-1.463.538-.685.253-1.37.508-2.058.749-.499.177-1.002.343-1.502.514-.682.231-1.361.466-2.044.688-.509.166-1.021.322-1.531.482-.679.213-1.357.428-2.038.632-.517.154-1.035.299-1.553.448-.679.194-1.357.392-2.038.578l-1.58.415c-.675.176-1.349.354-2.026.521-.536.132-1.073.255-1.61.382-.671.158-1.342.318-2.015.467-.545.121-1.092.232-1.638.348-.667.14-1.332.281-2 .414-.556.108-1.113.209-1.67.312-.66.123-1.32.247-1.981.36-.567.098-1.137.186-1.704.276-.652.105-1.306.212-1.958.309-.575.085-1.151.16-1.727.239-.649.089-1.301.179-1.952.259-.58.07-1.16.134-1.74.198-.646.072-1.294.146-1.94.211-.59.058-1.18.107-1.771.159-.639.057-1.277.113-1.918.161-.595.045-1.19.081-1.786.119-.638.041-1.274.082-1.911.115-.6.031-1.197.052-1.796.076-.635.024-1.269.051-1.903.068-.602.017-1.202.024-1.803.034-.635.01-1.268.021-1.901.023-.615.002-1.229-.004-1.843-.009-.607-.006-1.213-.01-1.819-.021-.618-.012-1.236-.033-1.854-.053-.604-.02-1.207-.037-1.811-.064-.623-.026-1.245-.062-1.867-.098-.598-.034-1.194-.065-1.793-.106-.625-.042-1.25-.094-1.875-.144-.595-.048-1.188-.093-1.782-.148-.629-.057-1.256-.124-1.883-.188-.589-.062-1.178-.12-1.766-.188-.632-.073-1.263-.156-1.894-.236-.582-.074-1.165-.147-1.746-.229-.637-.089-1.271-.188-1.906-.285-.575-.088-1.15-.173-1.724-.267-.643-.105-1.282-.222-1.924-.335-.563-.101-1.129-.198-1.692-.305-.647-.122-1.292-.255-1.938-.386-.556-.112-1.111-.222-1.667-.341-.652-.14-1.303-.29-1.955-.438-.544-.124-1.089-.243-1.631-.375-.66-.157-1.317-.326-1.976-.493l-1.596-.406c-.664-.176-1.325-.363-1.987-.549-.522-.146-1.045-.288-1.566-.439-.667-.194-1.331-.4-1.996-.604-.513-.157-1.025-.311-1.537-.473-.669-.212-1.335-.437-2.002-.659-.503-.168-1.008-.331-1.51-.504-.67-.23-1.337-.474-2.005-.715-.495-.178-.991-.352-1.484-.536-.672-.25-1.34-.513-2.009-.772-.484-.188-.97-.372-1.453-.565-.673-.27-1.342-.552-2.011-.832-.475-.198-.952-.392-1.425-.595-.673-.289-1.342-.591-2.011-.89-.466-.208-.933-.41-1.396-.623-.671-.309-1.338-.631-2.006-.948-.457-.218-.917-.431-1.372-.654-.666-.326-1.327-.666-1.99-1.002-.452-.229-.906-.454-1.355-.688-.658-.344-1.312-.699-1.964-1.053-.449-.242-.901-.479-1.35-.727-.652-.361-1.299-.736-1.947-1.107-.441-.253-.887-.5-1.326-.759-.646-.379-1.285-.771-1.927-1.16-.438-.266-.878-.524-1.312-.795-.638-.396-1.271-.807-1.904-1.214-.431-.276-.866-.547-1.295-.829-.627-.411-1.247-.837-1.869-1.259-.43-.292-.864-.577-1.292-.874-.611-.424-1.216-.863-1.823-1.297-.431-.308-.864-.609-1.293-.923-.602-.441-1.197-.896-1.795-1.347-.425-.321-.854-.635-1.275-.961-.597-.46-1.186-.935-1.776-1.404-.416-.331-.835-.654-1.249-.99-.595-.484-1.181-.982-1.77-1.476-.402-.337-.808-.666-1.206-1.008-.591-.506-1.174-1.027-1.761-1.545l-1.168-1.026c-.61-.552-1.212-1.117-1.815-1.681-.353-.327-.709-.647-1.059-.979-.778-.74-1.548-1.495-2.314-2.254l-.504-.491c-5.603-5.596-10.68-11.52-15.23-17.706-2.275-3.094-4.421-6.254-6.434-9.473-4.698-7.511-8.682-15.341-11.95-23.394-1.401-3.451-2.671-6.942-3.809-10.468-1.139-3.525-2.146-7.083-3.021-10.667-.584-2.389-1.108-4.79-1.577-7.199-.233-1.205-.453-2.412-.656-3.621-.308-1.812-.581-3.631-.822-5.453-.724-5.464-1.151-10.96-1.284-16.462-.059-2.444-.059-4.892-.002-7.337.171-7.237.853-14.465 2.047-21.624.597-3.579 1.322-7.142 2.174-10.679.426-1.769.885-3.531 1.375-5.287 3.432-12.29 8.429-24.233 14.988-35.519 1.874-3.225 3.876-6.396 6.006-9.504 1.128-1.646 2.29-3.276 3.489-4.888 1.982-2.664 4.062-5.277 6.24-7.837l.714-.835c2.425-2.807 4.965-5.549 7.627-8.215l.068-.071 103.98-103.93 1.281-1.281 102.66-102.66c1.127-1.127 2.148-2.318 3.081-3.555.57-.759 1.105-1.537 1.604-2.331 6.969-11.121 6.74-25.462-.695-36.366-.531-.779-1.1-1.54-1.704-2.281-.711-.871-1.473-1.715-2.284-2.527l-34.302-34.302-102.9-102.9c-12.996-12.996-34.066-12.996-47.062 0l-101.41 101.41-98.416 98.416-32.696 32.696c-1.659 1.659-3.302 3.33-4.928 5.011-19.509 20.174-36.582 41.89-51.214 64.76-1.219 1.906-2.422 3.82-3.607 5.741-2.371 3.843-4.674 7.718-6.909 11.621-4.79 8.365-9.268 16.865-13.434 25.481-2.5 5.17-4.887 10.382-7.163 15.632-1.348 3.111-2.657 6.236-3.927 9.373-.811 2.003-1.599 4.014-2.378 6.028-1.5 3.879-2.94 7.775-4.32 11.689-.847 2.402-1.672 4.811-2.474 7.226-1.462 4.401-2.855 8.821-4.167 13.261-.477 1.613-.944 3.228-1.401 4.845-.794 2.809-1.552 5.626-2.286 8.449-.534 2.053-1.058 4.106-1.561 6.167-.398 1.63-.786 3.262-1.164 4.896-1.071 4.629-2.059 9.274-2.971 13.933l-.311 1.602c-.581 3.03-1.133 6.064-1.647 9.104-.558 3.3-1.077 6.605-1.557 9.917-.48 3.31-.919 6.625-1.319 9.943-.584 4.84-1.081 9.689-1.496 14.544-.154 1.803-.299 3.605-.43 5.409-.358 4.928-.628 9.862-.812 14.797-.189 5.073-.288 10.148-.295 15.223-.008 6.675.142 13.349.451 20.017.316 6.67.784 13.33 1.411 19.97zm570.74 50.79l98.416-98.416 148.91 148.91-98.416 98.416-148.91-148.91zm-302.04-498.86l148.92 148.91-98.416 98.416-148.91-148.92 98.41-98.41z" fill="#91DC5A"/></svg>