<svg id="Capa_1" xmlns:rdf="http://www.w3.org/1999/02/22-rdf-syntax-ns#" style="enable-background:new 0 0 99.352 99.352" xmlns="http://www.w3.org/2000/svg" xml:space="preserve" height="512px" viewBox="0 0 99.352 99.352" width="512px" version="1.1" y="0px" x="0px" xmlns:cc="http://creativecommons.org/ns#" xmlns:dc="http://purl.org/dc/elements/1.1/"><g id="g3"><g id="g5" fill="#006DF0"><path id="path7" d="m77.258 25.428l-22.777 24.809h13.031c0.109 0.814 0.236 2.077 0.236 3.6 0 8.176-8.107 26.3-31.78 26.3l-0.243 2.542c0.918 0.175 22.68 4.22 36.584-6.539 6.358-4.918 14.582-16.554 15.427-25.902h11.615l-22.093-24.81z"/><path id="path9" d="m31.847 49.113c-0.111-0.812-0.238-2.074-0.238-3.598 0-8.176 8.108-26.301 31.779-26.301l0.243-2.539c-0.917-0.176-22.68-4.22-36.586 6.538-6.357 4.917-14.58 16.555-15.426 25.9h-11.619l22.099 24.813 22.778-24.813h-13.03z"/></g></g></svg>
