<svg xmlns="http://www.w3.org/2000/svg" width="2160" height="1080"><path fill="#666" d="M32.325 345.756h2080.914v48.487h-2080.914z"/><path d="M798.563 228.563c-21.479 0-37.326 4.009-49.469 10.563l-.156.094c-18.047 8.992-27.358 22.712-33.906 37.437-14.511 27.753-22.113 59.094-55.813 69.094-1.314.39-2.622.747-3.938 1.125v46.219c1.316.379 2.623.766 3.938 1.156 64.747 19.212 12.938 117.188 139.344 117.188.736 0 1.528-.033 2.313-.062 1.427.029 2.867.062 4.344.062 30.214 0 103.107-25.625 131.188-25.625h185.25c28.081 0 100.974 25.625 131.188 25.625 1.476 0 2.916-.034 4.344-.062.785.03 1.577.062 2.313.062 126.406 0 74.596-97.975 139.344-117.188 1.315-.39 2.621-.777 3.937-1.156v-46.219c-1.315-.378-2.623-.735-3.937-1.125-33.699-9.999-41.301-41.34-55.813-69.094-6.548-14.726-15.86-28.446-33.906-37.437l-.156-.094c-12.143-6.553-27.989-10.563-49.469-10.563-.723 0-1.483.034-2.25.062-1.447-.029-2.909-.062-4.406-.062-30.214 0-103.107 25.625-131.188 25.625h-185.25c-28.081 0-100.974-25.625-131.188-25.625-1.498 0-2.959.034-4.406.062-.767-.029-1.527-.062-2.25-.062z" fill="#d9bb7a" stroke="#565248"/><path d="M798.563 228.563c-3.723 0-7.262.111-10.656.344v282.281c3.407.164 6.95.25 10.656.25.736 0 1.528-.034 2.313-.063 1.427.029 2.867.063 4.344.063 12.134 0 31.172-4.147 51.406-9.094v-264.688c-20.234-4.946-39.272-9.094-51.406-9.094-1.498 0-2.959.035-4.406.063-.767-.029-1.527-.063-2.25-.063z" fill="#fdca01" stroke="#986601"/><path d="M901.063 248.563v242.875c14.255-3.265 26.859-5.625 35.344-5.625h33.344v-231.625h-33.344c-8.485 0-21.089-2.36-35.344-5.625z" fill="#9e0097" stroke="#430086" stroke-width=".99"/><path d="M1014.188 254.188v231.625h68.688v-231.625h-68.688z" fill="#f44800" stroke="#980101"/><path d="M1252.844 228.563c-6.488 0-14.942 1.207-24.5 3.063v276.75c9.558 1.856 18.012 3.063 24.5 3.063 1.476 0 2.916-.034 4.344-.063.785.03 1.577.063 2.313.063 14.804 0 27.142-1.346 37.531-3.75v-273.688c-10.189-3.439-22.466-5.438-37.531-5.438-.723 0-1.483.035-2.25.063-1.447-.029-2.909-.063-4.406-.063z" fill="#c68401"/></svg>