<svg xmlns="http://www.w3.org/2000/svg" viewBox="0 0 311.604 311.604" enable-background="new 0 0 311.604 311.604"><path d="M300.576 96.069c-6.09 0-11.023 4.939-11.023 11.023 0 2.479.846 4.738 2.22 6.58l-15.914 27.303c-1.822-.029-3.828.076-6.1.395v-24.111c3.959-1.678 6.732-5.596 6.732-10.166 0-6.084-4.931-11.023-11.021-11.023-6.09 0-11.026 4.939-11.026 11.023 0 4.57 2.78 8.488 6.736 10.166v26.092c-10.649 3.258-25.504 10.482-47.285 25.285 2.717-4.525 10.932-20.924-14.298-24.41-5.569-35.729-36.391-63.096-73.686-63.096-41.237 0-74.669 33.438-74.669 74.67 0 2.52.133 4.996.372 7.451 0 0-33.936 14.293-6.621 29.416-11.851 5.926-34.57 22.387-34.57 22.387s-26.646 15.506 5.266 15.42h198.863s20.717.086 39.172-26.947c20.447-29.934 48.076-32.582 48.076-45.1 0-9.297-8.173-14.217-16.698-16.275l14.089-24.168c.463.053.911.133 1.385.133 6.093 0 11.027-4.93 11.027-11.023.001-6.085-4.934-11.025-11.027-11.025z"/></svg>