<svg xmlns="http://www.w3.org/2000/svg" height="512" width="512" enable-background="new 0 0 360 190" viewBox="0 0 360 190"><path d="M347.64-9.852c-7.035 0-12.733 8.48-12.733 18.926 0 4.257.977 8.136 2.564 11.297l-18.383 46.88c-2.105-.05-4.422.131-7.046.678v-41.399c4.573-2.882 7.776-9.608 7.776-17.455 0-10.446-5.696-18.926-12.731-18.926s-12.736 8.48-12.736 18.926c0 7.847 3.211 14.574 7.781 17.455v44.8c-12.301 5.593-29.46 17.998-54.62 43.414 3.138-7.769 12.628-35.926-16.516-41.912-6.433-61.348-42.036-108.34-85.117-108.34-47.634 0-86.252 57.414-86.252 128.21 0 4.327.154 8.577.43 12.793 0 0-39.2 24.541-7.648 50.508-13.689 10.175-39.933 38.439-39.933 38.439s-30.779 26.624 6.083 26.476h229.71s23.931.148 45.249-46.269c23.619-51.397 55.534-55.944 55.534-77.437 0-15.963-9.441-24.411-19.288-27.944l16.275-41.497c.535.092 1.052.229 1.6.229 7.038 0 12.738-8.464 12.738-18.926.001-10.449-5.699-18.93-12.738-18.93z"/></svg>