<svg id="Capa_1" xmlns:rdf="http://www.w3.org/1999/02/22-rdf-syntax-ns#" style="enable-background:new 0 0 950.002 950.002" xmlns="http://www.w3.org/2000/svg" xml:space="preserve" height="512px" width="512px" version="1.1" y="0px" x="0px" xmlns:cc="http://creativecommons.org/ns#" xmlns:dc="http://purl.org/dc/elements/1.1/" viewBox="0 0 950.002 950.002"><g id="g3"><g id="g5" fill="#91DC5A"><path id="path7" d="m949.87 741.31c-0.072-2.064-0.145-4.139-0.217-6.221-0.075-2.082-0.152-4.17-0.229-6.268l-0.06-1.57-0.03-0.787-0.008-0.197-0.02-1.76-0.006-0.082-0.025-0.326-0.201-2.607c-0.271-3.479-0.542-6.973-0.813-10.467l-0.207-2.645-0.312-3.43c-0.216-2.281-0.431-4.561-0.646-6.836-0.223-2.271-0.447-4.539-0.669-6.799-0.115-1.129-0.229-2.256-0.343-3.381-0.138-1.041-0.276-2.08-0.414-3.119-1.139-8.242-2.156-16.342-3.608-24.129-0.686-3.896-1.319-7.727-2.031-11.461-0.777-3.725-1.537-7.367-2.277-10.914-1.402-7.098-3.163-13.727-4.647-19.855-0.38-1.529-0.752-3.029-1.115-4.492-0.404-1.457-0.8-2.877-1.185-4.264-0.782-2.766-1.523-5.391-2.221-7.855-0.71-2.461-1.336-4.771-1.99-6.889-0.674-2.111-1.292-4.051-1.851-5.803-0.829-2.574-1.528-4.742-2.079-6.455-0.815-2.529-3.487-3.951-6.043-3.223l-160.61 45.771c-2.447 0.697-3.964 3.135-3.498 5.637 0.174 0.934 0.373 2.004 0.595 3.201 0.229 1.205 0.483 2.541 0.759 3.994 0.261 1.457 0.466 3.053 0.729 4.74 0.258 1.689 0.532 3.488 0.821 5.383 0.141 0.947 0.308 1.912 0.439 2.91 0.114 1 0.23 2.025 0.35 3.07 0.447 4.184 1.115 8.67 1.413 13.48 0.197 2.393 0.401 4.852 0.609 7.361 0.156 2.518 0.234 5.098 0.368 7.709 0.348 5.213 0.282 10.641 0.382 16.115l0.023 2.039-0.072 1.805c-0.041 1.203-0.083 2.408-0.124 3.617-0.032 1.203-0.065 2.41-0.098 3.619l-0.038 1.807-0.11 2.602c-0.148 3.502-0.299 7.002-0.448 10.49l-0.111 2.613-0.015 0.326-0.003 0.08c0.002 0.393-0.03-3.111-0.02-1.598l-0.013 0.129-0.048 0.516-0.095 1.031c-0.124 1.373-0.248 2.738-0.371 4.102-0.119 1.359-0.238 2.715-0.355 4.062-0.16 1.342-0.319 2.678-0.479 4.004-0.341 2.65-0.551 5.275-0.973 7.832-0.37 2.559-0.734 5.072-1.09 7.535-0.426 2.445-0.842 4.838-1.246 7.166-0.366 2.33-0.856 4.574-1.292 6.746-0.456 2.168-0.819 4.273-1.292 6.271-0.461 1.998-0.903 3.91-1.324 5.73-0.208 0.898-0.41 1.773-0.606 2.625-0.202 0.73-0.397 1.438-0.588 2.125-0.112 0.42-0.218 0.814-0.327 1.221h196.44c2.633 0 4.826-2.066 4.926-4.697 0.001-0.016 0.001-0.031 0.002-0.047 0.163-3.658 0.331-7.414 0.503-11.254 0.073-3.836 0.147-7.756 0.224-11.742 0.112-3.982-0.009-8.029-0.02-12.121-0.02-2.03-0.04-4.08-0.06-6.15z"/><path id="path9" d="m898.79 535.13c2.635-1.061 3.837-4.113 2.622-6.68-0.54-1.141-1.171-2.475-1.886-3.984-0.675-1.418-1.421-2.988-2.231-4.697-1.049-2.137-2.183-4.447-3.396-6.916-1.222-2.459-2.521-5.076-3.893-7.834-0.695-1.434-1.378-2.617-2.093-3.963-0.712-1.316-1.441-2.662-2.186-4.037-1.497-2.744-3.028-5.613-4.671-8.551-1.697-2.906-3.451-5.912-5.254-9.002-0.904-1.541-1.821-3.104-2.749-4.684-0.971-1.556-1.954-3.131-2.947-4.723-1.997-3.171-4.038-6.412-6.112-9.706-4.377-6.45-8.734-13.196-13.597-19.761-1.194-1.653-2.395-3.312-3.598-4.976l-1.81-2.494-1.884-2.453c-2.52-3.263-5.05-6.537-7.58-9.812-2.575-3.237-5.239-6.406-7.85-9.587-1.32-1.58-2.599-3.183-3.946-4.727-1.351-1.539-2.697-3.074-4.04-4.603-1.343-1.523-2.68-3.043-4.011-4.554-1.323-1.517-2.657-3.008-4.033-4.45-2.724-2.901-5.414-5.766-8.06-8.585-2.65-2.81-5.394-5.451-8.005-8.091-2.63-2.626-5.186-5.205-7.796-7.6-2.581-2.416-5.093-4.766-7.521-7.04-2.418-2.279-4.887-4.349-7.187-6.399-2.319-2.028-4.542-3.971-6.656-5.819-2.168-1.787-4.225-3.481-6.157-5.073-1.934-1.586-3.743-3.07-5.416-4.442-1.676-1.367-3.279-2.552-4.692-3.657-2.058-1.579-3.796-2.913-5.177-3.973-2.105-1.616-5.106-1.271-6.798 0.776l-86.204 104.35c-1.625 1.968-1.486 4.844 0.327 6.64 0.721 0.712 1.553 1.536 2.489 2.463 0.897 0.901 1.925 1.855 2.979 2.969 1.054 1.113 2.192 2.318 3.409 3.604 1.219 1.28 2.515 2.642 3.88 4.078 1.317 1.482 2.702 3.043 4.147 4.67 1.427 1.642 2.987 3.272 4.471 5.09 1.497 1.8 3.044 3.66 4.636 5.573 1.621 1.878 3.168 3.917 4.77 5.977 1.585 2.074 3.279 4.119 4.871 6.312 1.593 2.186 3.212 4.408 4.851 6.658 0.836 1.107 1.629 2.262 2.41 3.434 0.79 1.164 1.584 2.332 2.381 3.506 0.798 1.168 1.601 2.342 2.404 3.52 0.802 1.178 1.537 2.41 2.312 3.615 1.522 2.432 3.1 4.828 4.596 7.277 1.458 2.473 2.917 4.947 4.369 7.41l1.09 1.838 1.021 1.877c0.682 1.246 1.361 2.49 2.038 3.727 2.795 4.889 5.154 9.93 7.623 14.666 1.13 2.428 2.241 4.814 3.329 7.152 0.544 1.164 1.082 2.316 1.614 3.453 0.493 1.158 0.979 2.301 1.459 3.43 0.965 2.246 1.903 4.434 2.812 6.547 0.839 2.143 1.649 4.213 2.427 6.199 0.39 0.992 0.77 1.963 1.142 2.912 0.352 0.926 0.788 1.928 1.022 2.699 0.555 1.619 1.08 3.156 1.574 4.6 0.504 1.434 0.977 2.775 1.413 4.016 0.573 1.711 1.099 3.279 1.574 4.697 0.529 1.584 0.995 2.984 1.395 4.184 0.898 2.693 3.88 4.066 6.515 3.008l149.49-60.08z"/><path id="path11" d="m459.81 348.75c1.306 0.178 2.75 0.375 4.324 0.59 1.564 0.272 3.256 0.567 5.063 0.882 1.804 0.31 3.724 0.639 5.747 0.987 1.758 0.292 3.579 0.716 5.472 1.112l54.404-111.28c-2.697-0.421-5.372-0.839-7.993-1.248-1.796-0.267-3.564-0.574-5.325-0.794-1.761-0.213-3.501-0.424-5.218-0.632-3.429-0.407-6.764-0.804-9.989-1.187-3.234-0.277-6.359-0.545-9.358-0.802-3-0.23-5.861-0.533-8.6-0.663-2.734-0.134-5.328-0.262-7.765-0.382-2.435-0.115-4.713-0.222-6.818-0.322-2.107-0.034-4.043-0.065-5.792-0.093-2.46-0.03-4.548-0.055-6.222-0.075-2.655-0.032-4.852 2.043-4.979 4.695l-4.961 103.58c-0.122 2.552 1.719 4.774 4.25 5.121 1.09 0.12 2.34 0.29 3.77 0.49z"/><path id="path13" d="m606.03 405.78c1.462 1.063 2.848 2.071 4.15 3.02 1.304 0.934 2.525 1.808 3.654 2.617 0.489 0.336 1.296 0.948 1.955 1.438 0.679 0.507 1.326 0.99 1.939 1.448 1.339 0.999 2.521 1.881 3.533 2.636 2.276 1.698 5.506 1.124 7.065-1.25l71.03-108.2c1.56-2.374 0.803-5.567-1.661-6.98-1.096-0.628-2.375-1.362-3.823-2.193-0.665-0.382-1.365-0.783-2.101-1.205-0.801-0.453-1.638-0.927-2.511-1.421-2.021-1.114-4.207-2.317-6.542-3.604-2.336-1.273-4.823-2.627-7.443-4.056-2.497-1.251-5.121-2.566-7.86-3.939-2.75-1.342-5.556-2.835-8.565-4.19-2.995-1.372-6.091-2.791-9.273-4.25-3.161-1.492-6.497-2.847-9.883-4.269-3.4-1.392-6.821-2.914-10.394-4.257-0.905-0.343-1.824-0.69-2.736-1.036l-30.642 133c1.694 1.064 3.29 2.192 4.862 3.21 1.81 1.22 3.56 2.38 5.23 3.48z"/><path id="path15" d="m364.43 348.21c1.372-0.181 2.719-0.405 4.064-0.547 1.345-0.136 2.674-0.271 3.984-0.405 2.615-0.271 5.158-0.535 7.619-0.791 2.468-0.165 4.853-0.325 7.142-0.479 1.142-0.078 2.26-0.154 3.353-0.229 1.09-0.073 2.182-0.166 3.118-0.167 1.929-0.051 3.76-0.098 5.479-0.143 1.714-0.054 3.316-0.105 4.8-0.152 1.829-0.012 3.509-0.023 5.025-0.033 1.67-0.009 3.146-0.017 4.408-0.024 2.84-0.015 5.072-2.42 4.886-5.254l-6.394-97.57c-0.187-2.834-2.713-4.927-5.53-4.571-1.253 0.158-2.716 0.343-4.373 0.552-1.536 0.195-3.237 0.412-5.089 0.648-2.188 0.325-4.554 0.675-7.083 1.05-2.521 0.384-5.205 0.793-8.034 1.224-1.448 0.204-2.781 0.475-4.18 0.739-1.395 0.266-2.822 0.539-4.279 0.817-2.909 0.562-5.938 1.148-9.076 1.754-3.113 0.709-6.333 1.443-9.642 2.196-1.651 0.379-3.325 0.764-5.019 1.154-1.692 0.396-3.389 0.88-5.11 1.325-3.435 0.915-6.942 1.85-10.51 2.8-3.532 1.065-7.123 2.147-10.757 3.243-1.812 0.561-3.643 1.09-5.463 1.689-1.812 0.619-3.637 1.24-5.467 1.865-1.827 0.626-3.661 1.254-5.5 1.885-1.84 0.626-3.683 1.255-5.501 1.972-3.645 1.391-7.304 2.788-10.963 4.185-3.643 1.426-7.226 3.006-10.817 4.501-1.79 0.763-3.585 1.499-5.354 2.282-1.757 0.811-3.508 1.619-5.253 2.425-1.741 0.806-3.476 1.61-5.201 2.409-1.725 0.798-3.443 1.584-5.113 2.451-3.352 1.692-6.663 3.364-9.919 5.008-3.257 1.633-6.361 3.435-9.444 5.094-3.069 1.69-6.087 3.302-8.934 5.039-2.863 1.698-5.648 3.351-8.342 4.949-2.702 1.576-5.208 3.278-7.664 4.816-2.439 1.563-4.776 3.062-6.999 4.487-2.175 1.493-4.239 2.909-6.178 4.24-1.934 1.332-3.744 2.578-5.418 3.731-1.672 1.153-3.151 2.296-4.514 3.284-1.847 1.364-3.424 2.528-4.7 3.47-2.131 1.573-2.631 4.544-1.141 6.735l40.515 59.566c1.442 2.12 4.261 2.785 6.494 1.524 1.029-0.58 2.245-1.267 3.632-2.049 1.209-0.669 2.517-1.459 3.994-2.228 1.476-0.77 3.072-1.6 4.777-2.488 1.7-0.889 3.51-1.835 5.417-2.832 1.94-0.93 3.979-1.908 6.107-2.928 2.138-0.996 4.307-2.137 6.646-3.132 2.321-1.019 4.721-2.072 7.189-3.155 2.443-1.125 5.031-2.108 7.649-3.158 2.632-1.02 5.268-2.174 8.029-3.149 2.749-0.991 5.545-1.998 8.374-3.018 1.403-0.533 2.847-0.984 4.294-1.446 1.444-0.465 2.896-0.932 4.353-1.401 1.454-0.47 2.914-0.942 4.378-1.416 1.472-0.447 2.965-0.847 4.448-1.275 2.979-0.824 5.938-1.738 8.938-2.504 3.002-0.743 6.004-1.486 8.994-2.225 1.484-0.395 2.99-0.704 4.489-1.013 1.496-0.315 2.988-0.629 4.475-0.942 1.482-0.315 2.959-0.628 4.429-0.94 1.473-0.294 2.954-0.521 4.415-0.784 2.922-0.507 5.808-1.009 8.648-1.501 2.83-0.42 5.64-0.81 8.38-1.18z"/><path id="path17" d="m88.175 425.22c-1.062 1.502-2.128 3.011-3.199 4.526-1.068 1.514-2.14 3.034-3.216 4.559-1.071 1.527-2.073 3.111-3.115 4.669-2.054 3.137-4.156 6.25-6.168 9.422-1.965 3.199-3.93 6.398-5.887 9.585l-1.46 2.386-1.386 2.425c-0.921 1.612-1.839 3.221-2.754 4.822-3.74 6.353-6.989 12.847-10.291 19.015-1.537 3.145-3.049 6.238-4.529 9.266-0.734 1.512-1.461 3.01-2.178 4.488-0.675 1.498-1.341 2.979-1.999 4.441-1.31 2.918-2.584 5.758-3.817 8.504-1.15 2.781-2.262 5.467-3.329 8.045-1.046 2.586-2.103 5.033-3.004 7.408-0.889 2.377-1.733 4.633-2.527 6.752-0.79 2.117-1.529 4.098-2.212 5.93-0.631 1.85-1.21 3.549-1.734 5.084-0.68 2.018-1.264 3.75-1.741 5.168-0.845 2.506 0.44 5.225 2.91 6.172l37.71 14.457c2.4 0.92 5.103-0.154 6.212-2.473 0.55-1.148 1.207-2.523 1.962-4.102 0.626-1.301 1.318-2.742 2.073-4.311 0.802-1.547 1.669-3.217 2.596-5.004 0.924-1.781 1.906-3.68 2.942-5.68 1.044-1.994 2.246-4.039 3.439-6.199 1.208-2.148 2.467-4.387 3.77-6.705 1.373-2.273 2.792-4.625 4.252-7.043 0.727-1.207 1.464-2.43 2.21-3.668 0.785-1.215 1.58-2.443 2.383-3.688 1.606-2.48 3.247-5.012 4.916-7.59 3.546-5.02 7.014-10.307 10.933-15.406 0.957-1.289 1.918-2.582 2.882-3.879l1.445-1.947 1.514-1.904c2.016-2.539 4.04-5.086 6.064-7.633 2.061-2.516 4.2-4.967 6.279-7.439 1.054-1.227 2.066-2.479 3.145-3.672 1.08-1.191 2.156-2.379 3.228-3.562 1.07-1.182 2.135-2.359 3.195-3.531 1.05-1.178 2.11-2.335 3.211-3.444 2.166-2.243 4.306-4.459 6.411-6.64 2.101-2.177 4.294-4.197 6.364-6.239 2.086-2.027 4.104-4.027 6.182-5.86 2.044-1.86 4.032-3.669 5.956-5.42 1.908-1.761 3.874-3.333 5.69-4.911 1.828-1.557 3.58-3.049 5.246-4.468 1.636-1.295 3.188-2.523 4.646-3.679 1.45-1.154 2.807-2.235 4.062-3.235 0.576-0.476 1.356-1.046 2.015-1.547 0.676-0.511 1.321-0.997 1.933-1.458 1.333-1.007 2.51-1.895 3.518-2.655 2.267-1.711 2.618-4.973 0.774-7.133l-42.935-50.299c-1.844-2.16-5.121-2.325-7.166-0.355-0.909 0.876-1.972 1.899-3.174 3.058-0.552 0.531-1.134 1.092-1.744 1.679-0.621 0.603-1.212 1.152-1.982 1.939-1.472 1.485-3.063 3.092-4.764 4.808-1.692 1.717-3.493 3.544-5.392 5.47-1.765 1.912-3.621 3.922-5.557 6.019-1.912 2.113-3.974 4.242-5.969 6.576-2.003 2.322-4.073 4.723-6.202 7.19-2.155 2.438-4.24 5.057-6.385 7.714-2.129 2.671-4.373 5.336-6.514 8.16-2.135 2.824-4.305 5.695-6.501 8.603-1.109 1.42-2.176 2.91-3.23 4.42z"/><path id="path19" d="m10.155 601.57c-0.251 1.236-0.545 2.684-0.878 4.32-0.305 1.502-0.643 3.166-1.011 4.977-0.361 1.852-0.714 4.039-1.108 6.271-0.388 2.254-0.8 4.652-1.234 7.18-0.21 1.26-0.45 2.562-0.649 3.875-0.177 1.305-0.357 2.639-0.542 4-0.704 5.453-1.631 11.32-2.165 17.588-0.31 3.123-0.628 6.33-0.953 9.609-0.268 3.283-0.447 6.645-0.678 10.053-0.54 6.811-0.639 13.875-0.864 21.021l-0.073 2.68 0.013 2.697c0.01 1.801 0.02 3.605 0.03 5.414 0.011 1.807 0.022 3.617 0.032 5.428l0.017 2.717 0.104 2.719c0.147 3.617 0.294 7.236 0.441 10.84l0.111 2.695 0.034 0.873 0.048 0.65 0.096 1.299c0.128 1.732 0.255 3.459 0.382 5.18s0.254 3.434 0.379 5.139c0.173 1.777 0.344 3.549 0.516 5.309 0.173 1.758 0.345 3.504 0.516 5.24 0.086 0.865 0.172 1.729 0.258 2.588 0.107 0.846 0.214 1.689 0.32 2.529 0.426 3.35 0.845 6.645 1.255 9.871 0.495 3.211 0.979 6.354 1.449 9.412 0.44 3.057 1.007 6.014 1.528 8.873 0.043 0.229 0.086 0.455 0.128 0.682 0.435 2.338 2.469 4.031 4.846 4.031h13.291c2.838 0 5.09-2.389 4.923-5.221-0.045-0.756-0.091-1.52-0.142-2.291-0.166-2.756-0.366-5.598-0.43-8.531-0.096-2.928-0.194-5.936-0.295-9.01-0.019-3.072-0.038-6.211-0.057-9.404-0.005-0.797-0.01-1.598-0.015-2.4 0.017-0.791 0.035-1.586 0.053-2.385 0.035-1.592 0.07-3.197 0.106-4.812 0.035-1.611 0.071-3.234 0.107-4.865 0.08-1.707 0.159-3.424 0.24-5.146 0.08-1.723 0.161-3.453 0.241-5.188l0.061-1.303 0.03-0.652 0.004-0.082c0-0.207 0.004 0.191 0.006 0.123l0.012-0.158 0.025-0.314 0.202-2.523c0.268-3.365 0.537-6.74 0.807-10.117l0.206-2.527 0.291-2.521c0.194-1.678 0.387-3.354 0.58-5.027 0.192-1.672 0.384-3.34 0.575-5.002l0.285-2.488 0.369-2.471c1.012-6.57 1.872-13.033 3.132-19.221 0.591-3.1 1.12-6.15 1.727-9.119 0.661-2.957 1.307-5.85 1.936-8.666 1.164-5.641 2.673-10.885 3.901-15.746 0.315-1.213 0.623-2.402 0.924-3.562 0.318-1.143 0.661-2.225 0.977-3.297 0.637-2.133 1.242-4.156 1.81-6.059 0.581-1.918 1.058-3.633 1.614-5.354 0.583-1.756 1.117-3.365 1.601-4.82 0.526-1.586 0.991-2.986 1.389-4.186 0.895-2.693-0.668-5.58-3.412-6.311l-33.319-8.885c-2.745-0.72-5.537 1.01-6.103 3.79z"/><path id="path21" d="m387.32 774.27c10.84 5.299 22.323 7.811 33.628 7.811 28.378 0 55.65-15.811 68.953-43.023 2.562-5.238 4.545-11.021 5.835-16.467l77.577-336.72 29.544-128.23 18.303-79.437c2.13-9.245-5.224-15.543-12.602-15.543-4.319 0-8.647 2.159-11.087 7.148l-37.245 76.183-54.944 112.39-153.18 313.31c-18.6 38.05-2.83 83.98 35.22 102.58zm36.47-108.43c20.759 0 37.588 16.828 37.588 37.588 0 20.758-16.829 37.588-37.588 37.588s-37.588-16.83-37.588-37.588c0-20.77 16.83-37.59 37.59-37.59z"/></g></g></svg>
