<svg xmlns="http://www.w3.org/2000/svg" height="512" width="512" viewBox="0 0 935.312 935.312" enable-background="new 0 0 935.312 935.312"><g fill="#91DC5A"><path d="M634.66 134.73c7.582 0 13.729-6.146 13.729-13.729v-31.087c0-7.582-6.146-13.728-13.729-13.728h-125.88v-47.603c0-7.582-6.146-13.728-13.729-13.728h-52.698c-7.582 0-13.729 6.146-13.729 13.728v398.35c-47.182 16.792-80.706 62.386-79.396 115.63.609 24.794 8.887 47.754 22.509 66.628 6.951-11.542 14.957-23.662 25.392-34.372 19.589-20.106 43.976-30.734 70.522-30.734s50.932 10.627 70.522 30.734c10.944 11.233 19.222 24.021 26.408 36.063 14.838-19.911 23.631-44.592 23.631-71.333 0-51.944-33.143-96.141-79.433-112.62v-91.48h125.89c7.582 0 13.729-6.146 13.729-13.728v-31.087c0-7.582-6.146-13.728-13.729-13.728h-125.88v-41.817h125.89c7.582 0 13.729-6.146 13.729-13.728v-31.087c0-7.582-6.146-13.728-13.729-13.728h-125.89v-41.816h125.88zM855.27 631.46c-14.948 25.57-23.459 37.617-36.877 37.617-13.417 0-21.93-12.047-36.877-37.617-7.944-13.588-16.158-27.64-27.427-39.204-14.984-15.38-32.688-23.179-52.615-23.179-19.929 0-37.631 7.799-52.615 23.179-11.268 11.565-19.481 25.616-27.424 39.205-14.947 25.569-23.458 37.616-36.874 37.616s-21.928-12.047-36.875-37.617l-.867-1.481c-7.678-13.123-15.699-26.576-26.558-37.722-14.984-15.381-32.687-23.18-52.615-23.18s-37.63 7.799-52.615 23.181c-10.488 10.765-18.329 23.683-25.771 36.378l-1.653 2.825c-14.947 25.569-23.457 37.616-36.873 37.616-13.415 0-21.926-12.047-36.873-37.617-7.943-13.588-16.157-27.639-27.424-39.202-14.984-15.382-32.688-23.181-52.614-23.181-19.928 0-37.63 7.799-52.615 23.18-11.267 11.564-19.481 25.615-27.425 39.204-14.947 25.569-23.457 37.616-36.874 37.616-13.415 0-21.924-12.047-36.871-37.616-7.943-13.588-16.156-27.64-27.423-39.203-15.006-15.38-32.708-23.18-52.636-23.18v50c13.415 0 21.924 12.047 36.871 37.616 7.943 13.588 16.156 27.641 27.423 39.204 14.984 15.381 32.686 23.18 52.614 23.18s37.63-7.799 52.615-23.179c11.267-11.565 19.481-25.616 27.424-39.205 14.947-25.569 23.457-37.616 36.873-37.616s21.926 12.047 36.873 37.616c7.942 13.589 16.157 27.64 27.424 39.204 14.985 15.381 32.687 23.18 52.615 23.18s37.63-7.799 52.614-23.179c11.268-11.565 19.481-25.616 27.425-39.204 14.946-25.57 23.458-37.617 36.874-37.617s21.927 12.047 36.875 37.617c7.942 13.588 16.156 27.639 27.424 39.204 14.984 15.38 32.688 23.179 52.616 23.179s37.63-7.799 52.614-23.179c11.268-11.565 19.481-25.616 27.425-39.205 14.946-25.569 23.457-37.616 36.873-37.616s21.929 12.047 36.877 37.617c7.942 13.588 16.157 27.64 27.426 39.204 14.984 15.38 32.688 23.179 52.616 23.179s37.631-7.799 52.615-23.179c11.269-11.564 19.482-25.616 27.427-39.204 14.947-25.57 23.46-37.617 36.877-37.617v-50c-19.928 0-37.631 7.799-52.616 23.179-11.26 11.56-19.48 25.61-27.42 39.2zM855.27 832.84c-14.948 25.57-23.459 37.617-36.877 37.617-13.417 0-21.93-12.047-36.877-37.617-7.944-13.588-16.158-27.64-27.427-39.203-14.984-15.381-32.688-23.18-52.615-23.18-19.929 0-37.631 7.799-52.615 23.18-11.268 11.564-19.481 25.615-27.424 39.205-14.947 25.568-23.458 37.615-36.874 37.615s-21.928-12.047-36.875-37.617c-7.943-13.588-16.157-27.639-27.425-39.203-14.984-15.381-32.687-23.18-52.615-23.18s-37.63 7.799-52.615 23.181c-11.268 11.563-19.481 25.614-27.424 39.204-14.947 25.568-23.457 37.615-36.873 37.615-13.415 0-21.926-12.047-36.873-37.617-7.943-13.588-16.157-27.639-27.424-39.202-14.984-15.382-32.688-23.181-52.614-23.181-19.928 0-37.63 7.799-52.615 23.18-11.267 11.564-19.481 25.615-27.425 39.205-14.947 25.568-23.457 37.615-36.874 37.615-13.415 0-21.924-12.047-36.871-37.615-7.943-13.589-16.156-27.641-27.423-39.204-14.984-15.381-32.686-23.181-52.614-23.181v50c13.415 0 21.924 12.047 36.871 37.616 7.943 13.588 16.156 27.641 27.423 39.204 14.984 15.381 32.686 23.18 52.614 23.18s37.63-7.799 52.615-23.179c11.267-11.565 19.481-25.616 27.424-39.205 14.947-25.569 23.457-37.616 36.873-37.616s21.926 12.047 36.873 37.616c7.942 13.589 16.157 27.64 27.424 39.204 14.985 15.381 32.687 23.18 52.615 23.18s37.63-7.799 52.614-23.179c11.268-11.565 19.481-25.616 27.425-39.204 14.946-25.57 23.458-37.617 36.874-37.617s21.927 12.047 36.875 37.617c7.942 13.588 16.156 27.639 27.424 39.204 14.984 15.38 32.688 23.179 52.616 23.179s37.63-7.799 52.614-23.179c11.268-11.565 19.481-25.616 27.425-39.205 14.946-25.569 23.456-37.616 36.872-37.616 13.418 0 21.93 12.047 36.878 37.617 7.942 13.588 16.157 27.64 27.426 39.204 14.984 15.38 32.688 23.179 52.616 23.179s37.631-7.799 52.615-23.179c11.269-11.564 19.482-25.616 27.427-39.204 14.947-25.57 23.46-37.617 36.877-37.617v-50c-19.929 0-37.631 7.799-52.616 23.18-11.28 11.56-19.5 25.61-27.44 39.2z"/></g></svg>