<?xml version="1.0" encoding="iso-8859-1"?>
<!-- Generator: Adobe Illustrator 16.0.0, SVG Export Plug-In . SVG Version: 6.00 Build 0)  -->
<!DOCTYPE svg PUBLIC "-//W3C//DTD SVG 1.1//EN" "http://www.w3.org/Graphics/SVG/1.1/DTD/svg11.dtd">
<svg xmlns="http://www.w3.org/2000/svg" xmlns:xlink="http://www.w3.org/1999/xlink" version="1.1" id="Capa_1" x="0px" y="0px" width="512px" height="512px" viewBox="0 0 935.312 935.312" style="enable-background:new 0 0 935.312 935.312;" xml:space="preserve">
<g>
	<g>
		<path d="M634.661,134.729c7.582,0,13.729-6.146,13.729-13.729V89.913c0-7.582-6.146-13.728-13.729-13.728H508.775V28.582    c0-7.582-6.146-13.728-13.729-13.728h-52.698c-7.582,0-13.729,6.146-13.729,13.728v398.347    c-47.182,16.792-80.706,62.386-79.396,115.628c0.609,24.794,8.887,47.754,22.509,66.628c6.951-11.542,14.957-23.662,25.392-34.372    c19.589-20.106,43.976-30.734,70.522-30.734c26.546,0,50.932,10.627,70.522,30.734c10.944,11.233,19.222,24.021,26.408,36.063    c14.838-19.911,23.631-44.592,23.631-71.333c0-51.944-33.143-96.141-79.433-112.615v-91.48h125.886    c7.582,0,13.729-6.146,13.729-13.728v-31.087c0-7.582-6.146-13.728-13.729-13.728H508.775v-41.817h125.886    c7.582,0,13.729-6.146,13.729-13.728v-31.087c0-7.582-6.146-13.728-13.729-13.728H508.775v-41.816H634.661z" fill="#91DC5A"/>
		<path d="M855.271,631.462c-14.948,25.57-23.459,37.617-36.877,37.617c-13.417,0-21.93-12.047-36.877-37.617    c-7.944-13.588-16.158-27.64-27.427-39.204c-14.984-15.38-32.688-23.179-52.615-23.179c-19.929,0-37.631,7.799-52.615,23.179    c-11.268,11.565-19.481,25.616-27.424,39.205c-14.947,25.569-23.458,37.616-36.874,37.616s-21.928-12.047-36.875-37.617    c-0.288-0.492-0.578-0.987-0.867-1.481c-7.678-13.123-15.699-26.576-26.558-37.722c-14.984-15.381-32.687-23.18-52.615-23.18    s-37.63,7.799-52.615,23.181c-10.488,10.765-18.329,23.683-25.771,36.378c-0.553,0.942-1.104,1.886-1.653,2.825    c-14.947,25.569-23.457,37.616-36.873,37.616c-13.415,0-21.926-12.047-36.873-37.617c-7.943-13.588-16.157-27.639-27.424-39.202    c-14.984-15.382-32.688-23.181-52.614-23.181c-19.928,0-37.63,7.799-52.615,23.18c-11.267,11.564-19.481,25.615-27.425,39.204    c-14.947,25.569-23.457,37.616-36.874,37.616c-13.415,0-21.924-12.047-36.871-37.616c-7.943-13.588-16.156-27.64-27.423-39.203    C37.63,576.879,19.928,569.079,0,569.079v50c13.415,0,21.924,12.047,36.871,37.616c7.943,13.588,16.156,27.641,27.423,39.204    c14.984,15.381,32.686,23.18,52.614,23.18c19.928,0,37.63-7.799,52.615-23.179c11.267-11.565,19.481-25.616,27.424-39.205    c14.947-25.569,23.457-37.616,36.873-37.616s21.926,12.047,36.873,37.616c7.942,13.589,16.157,27.64,27.424,39.204    c14.985,15.381,32.687,23.18,52.615,23.18c19.928,0,37.63-7.799,52.614-23.179c11.268-11.565,19.481-25.616,27.425-39.204    c14.946-25.57,23.458-37.617,36.874-37.617s21.927,12.047,36.875,37.617c7.942,13.588,16.156,27.639,27.424,39.204    c14.984,15.38,32.688,23.179,52.616,23.179c19.928,0,37.63-7.799,52.614-23.179c11.268-11.565,19.481-25.616,27.425-39.205    c14.946-25.569,23.457-37.616,36.873-37.616s21.929,12.047,36.877,37.617c7.942,13.588,16.157,27.64,27.426,39.204    c14.984,15.38,32.688,23.179,52.616,23.179c19.928,0,37.631-7.799,52.615-23.179c11.269-11.564,19.482-25.616,27.427-39.204    c14.947-25.57,23.46-37.617,36.877-37.617v-50c-19.928,0-37.631,7.799-52.616,23.179    C871.428,603.822,863.214,617.874,855.271,631.462z" fill="#91DC5A"/>
		<path d="M855.271,832.84c-14.948,25.57-23.459,37.617-36.877,37.617c-13.417,0-21.93-12.047-36.877-37.617    c-7.944-13.588-16.158-27.64-27.427-39.203c-14.984-15.381-32.688-23.18-52.615-23.18c-19.929,0-37.631,7.799-52.615,23.18    c-11.268,11.564-19.481,25.615-27.424,39.205c-14.947,25.568-23.458,37.615-36.874,37.615s-21.928-12.047-36.875-37.617    c-7.943-13.588-16.157-27.639-27.425-39.203c-14.984-15.381-32.687-23.18-52.615-23.18s-37.63,7.799-52.615,23.181    c-11.268,11.563-19.481,25.614-27.424,39.204c-14.947,25.568-23.457,37.615-36.873,37.615c-13.415,0-21.926-12.047-36.873-37.617    c-7.943-13.588-16.157-27.639-27.424-39.202c-14.984-15.382-32.688-23.181-52.614-23.181c-19.928,0-37.63,7.799-52.615,23.18    c-11.267,11.564-19.481,25.615-27.425,39.205c-14.947,25.568-23.457,37.615-36.874,37.615c-13.415,0-21.924-12.047-36.871-37.615    c-7.943-13.589-16.156-27.641-27.423-39.204c-14.984-15.381-32.686-23.181-52.614-23.181v50c13.415,0,21.924,12.047,36.871,37.616    c7.943,13.588,16.156,27.641,27.423,39.204c14.984,15.381,32.686,23.18,52.614,23.18c19.928,0,37.63-7.799,52.615-23.179    c11.267-11.565,19.481-25.616,27.424-39.205c14.947-25.569,23.457-37.616,36.873-37.616s21.926,12.047,36.873,37.616    c7.942,13.589,16.157,27.64,27.424,39.204c14.985,15.381,32.687,23.18,52.615,23.18c19.928,0,37.63-7.799,52.614-23.179    c11.268-11.565,19.481-25.616,27.425-39.204c14.946-25.57,23.458-37.617,36.874-37.617s21.927,12.047,36.875,37.617    c7.942,13.588,16.156,27.639,27.424,39.204c14.984,15.38,32.688,23.179,52.616,23.179c19.928,0,37.63-7.799,52.614-23.179    c11.268-11.565,19.481-25.616,27.425-39.205c14.946-25.569,23.456-37.616,36.872-37.616c13.418,0,21.93,12.047,36.878,37.617    c7.942,13.588,16.157,27.64,27.426,39.204c14.984,15.38,32.688,23.179,52.616,23.179c19.928,0,37.631-7.799,52.615-23.179    c11.269-11.564,19.482-25.616,27.427-39.204c14.947-25.57,23.46-37.617,36.877-37.617v-50c-19.929,0-37.631,7.799-52.616,23.18    C871.428,805.2,863.214,819.252,855.271,832.84z" fill="#91DC5A"/>
	</g>
</g>
<g>
</g>
<g>
</g>
<g>
</g>
<g>
</g>
<g>
</g>
<g>
</g>
<g>
</g>
<g>
</g>
<g>
</g>
<g>
</g>
<g>
</g>
<g>
</g>
<g>
</g>
<g>
</g>
<g>
</g>
</svg>
